999
DXF from OpenSCAD
  0
SECTION
  2
HEADER
  9
$ACADVER
  1
AC1006
  9
$INSBASE
 10
0.0
 20
0.0
 30
0.0
  9
$EXTMIN
 10
-107
 20
-17
  9
$EXTMAX
 10
107
 20
147
  9
$LINMIN
 10
-107
 20
-17
  9
$LINMAX
 10
107
 20
147
  0
ENDSEC
  0
SECTION
  2
TABLES
  0
TABLE
  2
LTYPE
 70
1
  0
LTYPE
  2
CONTINUOUS
 70
64
  3
Solid line
 72
65
 73
0
 40
0.000000
  0
ENDTAB
  0
TABLE
  2
LAYER
 70
6
  0
LAYER
  2
0
 70
64
 62
7
  6
CONTINUOUS
  0
ENDTAB
  0
TABLE
  2
STYLE
 70
0
  0
ENDTAB
  0
ENDSEC
  0
SECTION
  2
BLOCKS
  0
ENDSEC
  0
SECTION
  2
ENTITIES
  0
LWPOLYLINE
100
AcDbEntity
  8
0
100
AcDbPolyline
 90
4
 70
1
 10
107
 20
147
 10
-107
 20
147
 10
-107
 20
-17
 10
107
 20
-17
  0
LWPOLYLINE
100
AcDbEntity
  8
0
100
AcDbPolyline
 90
4
 70
1
 10
-90
 20
0
 10
-90
 20
130
 10
90
 20
130
 10
90
 20
0
  0
LWPOLYLINE
100
AcDbEntity
  8
0
100
AcDbPolyline
 90
96
 70
1
 10
-100.147
 20
120.755
 10
-100.294
 20
120.769
 10
-100.439
 20
120.793
 10
-100.582
 20
120.827
 10
-100.723
 20
120.869
 10
-100.861
 20
120.921
 10
-100.995
 20
120.982
 10
-101.125
 20
121.051
 10
-101.25
 20
121.129
 10
-101.37
 20
121.215
 10
-101.484
 20
121.308
 10
-101.591
 20
121.409
 10
-101.692
 20
121.516
 10
-101.785
 20
121.63
 10
-101.871
 20
121.75
 10
-101.949
 20
121.875
 10
-102.018
 20
122.005
 10
-102.079
 20
122.139
 10
-102.131
 20
122.277
 10
-102.173
 20
122.418
 10
-102.207
 20
122.561
 10
-102.231
 20
122.706
 10
-102.245
 20
122.853
 10
-102.25
 20
123
 10
-102.245
 20
123.147
 10
-102.231
 20
123.294
 10
-102.207
 20
123.439
 10
-102.173
 20
123.582
 10
-102.131
 20
123.723
 10
-102.079
 20
123.861
 10
-102.018
 20
123.995
 10
-101.949
 20
124.125
 10
-101.871
 20
124.25
 10
-101.785
 20
124.37
 10
-101.692
 20
124.484
 10
-101.591
 20
124.591
 10
-101.484
 20
124.692
 10
-101.37
 20
124.785
 10
-101.25
 20
124.871
 10
-101.125
 20
124.949
 10
-100.995
 20
125.018
 10
-100.861
 20
125.079
 10
-100.723
 20
125.131
 10
-100.582
 20
125.173
 10
-100.439
 20
125.207
 10
-100.294
 20
125.231
 10
-100.147
 20
125.245
 10
-100
 20
125.25
 10
-99.8528
 20
125.245
 10
-99.7063
 20
125.231
 10
-99.561
 20
125.207
 10
-99.4177
 20
125.173
 10
-99.2768
 20
125.131
 10
-99.139
 20
125.079
 10
-99.0049
 20
125.018
 10
-98.875
 20
124.949
 10
-98.75
 20
124.871
 10
-98.6303
 20
124.785
 10
-98.5165
 20
124.692
 10
-98.409
 20
124.591
 10
-98.3084
 20
124.484
 10
-98.215
 20
124.37
 10
-98.1292
 20
124.25
 10
-98.0514
 20
124.125
 10
-97.982
 20
123.995
 10
-97.9213
 20
123.861
 10
-97.8694
 20
123.723
 10
-97.8267
 20
123.582
 10
-97.7932
 20
123.439
 10
-97.7692
 20
123.294
 10
-97.7548
 20
123.147
 10
-97.75
 20
123
 10
-97.7548
 20
122.853
 10
-97.7692
 20
122.706
 10
-97.7932
 20
122.561
 10
-97.8267
 20
122.418
 10
-97.8694
 20
122.277
 10
-97.9213
 20
122.139
 10
-97.982
 20
122.005
 10
-98.0514
 20
121.875
 10
-98.1292
 20
121.75
 10
-98.215
 20
121.63
 10
-98.3084
 20
121.516
 10
-98.409
 20
121.409
 10
-98.5165
 20
121.308
 10
-98.6303
 20
121.215
 10
-98.75
 20
121.129
 10
-98.875
 20
121.051
 10
-99.0049
 20
120.982
 10
-99.139
 20
120.921
 10
-99.2768
 20
120.869
 10
-99.4177
 20
120.827
 10
-99.561
 20
120.793
 10
-99.7063
 20
120.769
 10
-99.8528
 20
120.755
 10
-100
 20
120.75
  0
LWPOLYLINE
100
AcDbEntity
  8
0
100
AcDbPolyline
 90
96
 70
1
 10
99.8528
 20
120.755
 10
99.7063
 20
120.769
 10
99.561
 20
120.793
 10
99.4177
 20
120.827
 10
99.2768
 20
120.869
 10
99.139
 20
120.921
 10
99.0049
 20
120.982
 10
98.875
 20
121.051
 10
98.75
 20
121.129
 10
98.6303
 20
121.215
 10
98.5165
 20
121.308
 10
98.409
 20
121.409
 10
98.3084
 20
121.516
 10
98.215
 20
121.63
 10
98.1292
 20
121.75
 10
98.0514
 20
121.875
 10
97.982
 20
122.005
 10
97.9213
 20
122.139
 10
97.8694
 20
122.277
 10
97.8267
 20
122.418
 10
97.7932
 20
122.561
 10
97.7692
 20
122.706
 10
97.7548
 20
122.853
 10
97.75
 20
123
 10
97.7548
 20
123.147
 10
97.7692
 20
123.294
 10
97.7932
 20
123.439
 10
97.8267
 20
123.582
 10
97.8694
 20
123.723
 10
97.9213
 20
123.861
 10
97.982
 20
123.995
 10
98.0514
 20
124.125
 10
98.1292
 20
124.25
 10
98.215
 20
124.37
 10
98.3084
 20
124.484
 10
98.409
 20
124.591
 10
98.5165
 20
124.692
 10
98.6303
 20
124.785
 10
98.75
 20
124.871
 10
98.875
 20
124.949
 10
99.0049
 20
125.018
 10
99.139
 20
125.079
 10
99.2768
 20
125.131
 10
99.4177
 20
125.173
 10
99.561
 20
125.207
 10
99.7063
 20
125.231
 10
99.8528
 20
125.245
 10
100
 20
125.25
 10
100.147
 20
125.245
 10
100.294
 20
125.231
 10
100.439
 20
125.207
 10
100.582
 20
125.173
 10
100.723
 20
125.131
 10
100.861
 20
125.079
 10
100.995
 20
125.018
 10
101.125
 20
124.949
 10
101.25
 20
124.871
 10
101.37
 20
124.785
 10
101.484
 20
124.692
 10
101.591
 20
124.591
 10
101.692
 20
124.484
 10
101.785
 20
124.37
 10
101.871
 20
124.25
 10
101.949
 20
124.125
 10
102.018
 20
123.995
 10
102.079
 20
123.861
 10
102.131
 20
123.723
 10
102.173
 20
123.582
 10
102.207
 20
123.439
 10
102.231
 20
123.294
 10
102.245
 20
123.147
 10
102.25
 20
123
 10
102.245
 20
122.853
 10
102.231
 20
122.706
 10
102.207
 20
122.561
 10
102.173
 20
122.418
 10
102.131
 20
122.277
 10
102.079
 20
122.139
 10
102.018
 20
122.005
 10
101.949
 20
121.875
 10
101.871
 20
121.75
 10
101.785
 20
121.63
 10
101.692
 20
121.516
 10
101.591
 20
121.409
 10
101.484
 20
121.308
 10
101.37
 20
121.215
 10
101.25
 20
121.129
 10
101.125
 20
121.051
 10
100.995
 20
120.982
 10
100.861
 20
120.921
 10
100.723
 20
120.869
 10
100.582
 20
120.827
 10
100.439
 20
120.793
 10
100.294
 20
120.769
 10
100.147
 20
120.755
 10
100
 20
120.75
  0
LWPOLYLINE
100
AcDbEntity
  8
0
100
AcDbPolyline
 90
96
 70
1
 10
-100.147
 20
62.7548
 10
-100.294
 20
62.7692
 10
-100.439
 20
62.7932
 10
-100.582
 20
62.8267
 10
-100.723
 20
62.8694
 10
-100.861
 20
62.9213
 10
-100.995
 20
62.982
 10
-101.125
 20
63.0514
 10
-101.25
 20
63.1292
 10
-101.37
 20
63.215
 10
-101.484
 20
63.3084
 10
-101.591
 20
63.409
 10
-101.692
 20
63.5165
 10
-101.785
 20
63.6303
 10
-101.871
 20
63.75
 10
-101.949
 20
63.875
 10
-102.018
 20
64.0049
 10
-102.079
 20
64.139
 10
-102.131
 20
64.2768
 10
-102.173
 20
64.4177
 10
-102.207
 20
64.561
 10
-102.231
 20
64.7063
 10
-102.245
 20
64.8528
 10
-102.25
 20
65
 10
-102.245
 20
65.1472
 10
-102.231
 20
65.2937
 10
-102.207
 20
65.439
 10
-102.173
 20
65.5823
 10
-102.131
 20
65.7232
 10
-102.079
 20
65.861
 10
-102.018
 20
65.9951
 10
-101.949
 20
66.125
 10
-101.871
 20
66.25
 10
-101.785
 20
66.3697
 10
-101.692
 20
66.4835
 10
-101.591
 20
66.591
 10
-101.484
 20
66.6916
 10
-101.37
 20
66.785
 10
-101.25
 20
66.8708
 10
-101.125
 20
66.9486
 10
-100.995
 20
67.018
 10
-100.861
 20
67.0787
 10
-100.723
 20
67.1306
 10
-100.582
 20
67.1733
 10
-100.439
 20
67.2068
 10
-100.294
 20
67.2308
 10
-100.147
 20
67.2452
 10
-100
 20
67.25
 10
-99.8528
 20
67.2452
 10
-99.7063
 20
67.2308
 10
-99.561
 20
67.2068
 10
-99.4177
 20
67.1733
 10
-99.2768
 20
67.1306
 10
-99.139
 20
67.0787
 10
-99.0049
 20
67.018
 10
-98.875
 20
66.9486
 10
-98.75
 20
66.8708
 10
-98.6303
 20
66.785
 10
-98.5165
 20
66.6916
 10
-98.409
 20
66.591
 10
-98.3084
 20
66.4835
 10
-98.215
 20
66.3697
 10
-98.1292
 20
66.25
 10
-98.0514
 20
66.125
 10
-97.982
 20
65.9951
 10
-97.9213
 20
65.861
 10
-97.8694
 20
65.7232
 10
-97.8267
 20
65.5823
 10
-97.7932
 20
65.439
 10
-97.7692
 20
65.2937
 10
-97.7548
 20
65.1472
 10
-97.75
 20
65
 10
-97.7548
 20
64.8528
 10
-97.7692
 20
64.7063
 10
-97.7932
 20
64.561
 10
-97.8267
 20
64.4177
 10
-97.8694
 20
64.2768
 10
-97.9213
 20
64.139
 10
-97.982
 20
64.0049
 10
-98.0514
 20
63.875
 10
-98.1292
 20
63.75
 10
-98.215
 20
63.6303
 10
-98.3084
 20
63.5165
 10
-98.409
 20
63.409
 10
-98.5165
 20
63.3084
 10
-98.6303
 20
63.215
 10
-98.75
 20
63.1292
 10
-98.875
 20
63.0514
 10
-99.0049
 20
62.982
 10
-99.139
 20
62.9213
 10
-99.2768
 20
62.8694
 10
-99.4177
 20
62.8267
 10
-99.561
 20
62.7932
 10
-99.7063
 20
62.7692
 10
-99.8528
 20
62.7548
 10
-100
 20
62.75
  0
LWPOLYLINE
100
AcDbEntity
  8
0
100
AcDbPolyline
 90
96
 70
1
 10
99.8528
 20
62.7548
 10
99.7063
 20
62.7692
 10
99.561
 20
62.7932
 10
99.4177
 20
62.8267
 10
99.2768
 20
62.8694
 10
99.139
 20
62.9213
 10
99.0049
 20
62.982
 10
98.875
 20
63.0514
 10
98.75
 20
63.1292
 10
98.6303
 20
63.215
 10
98.5165
 20
63.3084
 10
98.409
 20
63.409
 10
98.3084
 20
63.5165
 10
98.215
 20
63.6303
 10
98.1292
 20
63.75
 10
98.0514
 20
63.875
 10
97.982
 20
64.0049
 10
97.9213
 20
64.139
 10
97.8694
 20
64.2768
 10
97.8267
 20
64.4177
 10
97.7932
 20
64.561
 10
97.7692
 20
64.7063
 10
97.7548
 20
64.8528
 10
97.75
 20
65
 10
97.7548
 20
65.1472
 10
97.7692
 20
65.2937
 10
97.7932
 20
65.439
 10
97.8267
 20
65.5823
 10
97.8694
 20
65.7232
 10
97.9213
 20
65.861
 10
97.982
 20
65.9951
 10
98.0514
 20
66.125
 10
98.1292
 20
66.25
 10
98.215
 20
66.3697
 10
98.3084
 20
66.4835
 10
98.409
 20
66.591
 10
98.5165
 20
66.6916
 10
98.6303
 20
66.785
 10
98.75
 20
66.8708
 10
98.875
 20
66.9486
 10
99.0049
 20
67.018
 10
99.139
 20
67.0787
 10
99.2768
 20
67.1306
 10
99.4177
 20
67.1733
 10
99.561
 20
67.2068
 10
99.7063
 20
67.2308
 10
99.8528
 20
67.2452
 10
100
 20
67.25
 10
100.147
 20
67.2452
 10
100.294
 20
67.2308
 10
100.439
 20
67.2068
 10
100.582
 20
67.1733
 10
100.723
 20
67.1306
 10
100.861
 20
67.0787
 10
100.995
 20
67.018
 10
101.125
 20
66.9486
 10
101.25
 20
66.8708
 10
101.37
 20
66.785
 10
101.484
 20
66.6916
 10
101.591
 20
66.591
 10
101.692
 20
66.4835
 10
101.785
 20
66.3697
 10
101.871
 20
66.25
 10
101.949
 20
66.125
 10
102.018
 20
65.9951
 10
102.079
 20
65.861
 10
102.131
 20
65.7232
 10
102.173
 20
65.5823
 10
102.207
 20
65.439
 10
102.231
 20
65.2937
 10
102.245
 20
65.1472
 10
102.25
 20
65
 10
102.245
 20
64.8528
 10
102.231
 20
64.7063
 10
102.207
 20
64.561
 10
102.173
 20
64.4177
 10
102.131
 20
64.2768
 10
102.079
 20
64.139
 10
102.018
 20
64.0049
 10
101.949
 20
63.875
 10
101.871
 20
63.75
 10
101.785
 20
63.6303
 10
101.692
 20
63.5165
 10
101.591
 20
63.409
 10
101.484
 20
63.3084
 10
101.37
 20
63.215
 10
101.25
 20
63.1292
 10
101.125
 20
63.0514
 10
100.995
 20
62.982
 10
100.861
 20
62.9213
 10
100.723
 20
62.8694
 10
100.582
 20
62.8267
 10
100.439
 20
62.7932
 10
100.294
 20
62.7692
 10
100.147
 20
62.7548
 10
100
 20
62.75
  0
LWPOLYLINE
100
AcDbEntity
  8
0
100
AcDbPolyline
 90
96
 70
1
 10
-100.147
 20
4.75482
 10
-100.294
 20
4.76925
 10
-100.439
 20
4.79323
 10
-100.582
 20
4.82667
 10
-100.723
 20
4.86941
 10
-100.861
 20
4.92127
 10
-100.995
 20
4.98204
 10
-101.125
 20
5.05144
 10
-101.25
 20
5.12919
 10
-101.37
 20
5.21495
 10
-101.484
 20
5.30836
 10
-101.591
 20
5.40901
 10
-101.692
 20
5.51647
 10
-101.785
 20
5.63029
 10
-101.871
 20
5.74997
 10
-101.949
 20
5.875
 10
-102.018
 20
6.00485
 10
-102.079
 20
6.13896
 10
-102.131
 20
6.27676
 10
-102.173
 20
6.41766
 10
-102.207
 20
6.56105
 10
-102.231
 20
6.70632
 10
-102.245
 20
6.85284
 10
-102.25
 20
7
 10
-102.245
 20
7.14716
 10
-102.231
 20
7.29368
 10
-102.207
 20
7.43895
 10
-102.173
 20
7.58234
 10
-102.131
 20
7.72324
 10
-102.079
 20
7.86104
 10
-102.018
 20
7.99515
 10
-101.949
 20
8.125
 10
-101.871
 20
8.25003
 10
-101.785
 20
8.36971
 10
-101.692
 20
8.48353
 10
-101.591
 20
8.59099
 10
-101.484
 20
8.69164
 10
-101.37
 20
8.78505
 10
-101.25
 20
8.87081
 10
-101.125
 20
8.94856
 10
-100.995
 20
9.01796
 10
-100.861
 20
9.07873
 10
-100.723
 20
9.13059
 10
-100.582
 20
9.17333
 10
-100.439
 20
9.20677
 10
-100.294
 20
9.23075
 10
-100.147
 20
9.24518
 10
-100
 20
9.25
 10
-99.8528
 20
9.24518
 10
-99.7063
 20
9.23075
 10
-99.561
 20
9.20677
 10
-99.4177
 20
9.17333
 10
-99.2768
 20
9.13059
 10
-99.139
 20
9.07873
 10
-99.0049
 20
9.01796
 10
-98.875
 20
8.94856
 10
-98.75
 20
8.87081
 10
-98.6303
 20
8.78505
 10
-98.5165
 20
8.69164
 10
-98.409
 20
8.59099
 10
-98.3084
 20
8.48353
 10
-98.215
 20
8.36971
 10
-98.1292
 20
8.25003
 10
-98.0514
 20
8.125
 10
-97.982
 20
7.99515
 10
-97.9213
 20
7.86104
 10
-97.8694
 20
7.72324
 10
-97.8267
 20
7.58234
 10
-97.7932
 20
7.43895
 10
-97.7692
 20
7.29368
 10
-97.7548
 20
7.14716
 10
-97.75
 20
7
 10
-97.7548
 20
6.85284
 10
-97.7692
 20
6.70632
 10
-97.7932
 20
6.56105
 10
-97.8267
 20
6.41766
 10
-97.8694
 20
6.27676
 10
-97.9213
 20
6.13896
 10
-97.982
 20
6.00485
 10
-98.0514
 20
5.875
 10
-98.1292
 20
5.74997
 10
-98.215
 20
5.63029
 10
-98.3084
 20
5.51647
 10
-98.409
 20
5.40901
 10
-98.5165
 20
5.30836
 10
-98.6303
 20
5.21495
 10
-98.75
 20
5.12919
 10
-98.875
 20
5.05144
 10
-99.0049
 20
4.98204
 10
-99.139
 20
4.92127
 10
-99.2768
 20
4.86941
 10
-99.4177
 20
4.82667
 10
-99.561
 20
4.79323
 10
-99.7063
 20
4.76925
 10
-99.8528
 20
4.75482
 10
-100
 20
4.75
  0
LWPOLYLINE
100
AcDbEntity
  8
0
100
AcDbPolyline
 90
96
 70
1
 10
99.8528
 20
4.75482
 10
99.7063
 20
4.76925
 10
99.561
 20
4.79323
 10
99.4177
 20
4.82667
 10
99.2768
 20
4.86941
 10
99.139
 20
4.92127
 10
99.0049
 20
4.98204
 10
98.875
 20
5.05144
 10
98.75
 20
5.12919
 10
98.6303
 20
5.21495
 10
98.5165
 20
5.30836
 10
98.409
 20
5.40901
 10
98.3084
 20
5.51647
 10
98.215
 20
5.63029
 10
98.1292
 20
5.74997
 10
98.0514
 20
5.875
 10
97.982
 20
6.00485
 10
97.9213
 20
6.13896
 10
97.8694
 20
6.27676
 10
97.8267
 20
6.41766
 10
97.7932
 20
6.56105
 10
97.7692
 20
6.70632
 10
97.7548
 20
6.85284
 10
97.75
 20
7
 10
97.7548
 20
7.14716
 10
97.7692
 20
7.29368
 10
97.7932
 20
7.43895
 10
97.8267
 20
7.58234
 10
97.8694
 20
7.72324
 10
97.9213
 20
7.86104
 10
97.982
 20
7.99515
 10
98.0514
 20
8.125
 10
98.1292
 20
8.25003
 10
98.215
 20
8.36971
 10
98.3084
 20
8.48353
 10
98.409
 20
8.59099
 10
98.5165
 20
8.69164
 10
98.6303
 20
8.78505
 10
98.75
 20
8.87081
 10
98.875
 20
8.94856
 10
99.0049
 20
9.01796
 10
99.139
 20
9.07873
 10
99.2768
 20
9.13059
 10
99.4177
 20
9.17333
 10
99.561
 20
9.20677
 10
99.7063
 20
9.23075
 10
99.8528
 20
9.24518
 10
100
 20
9.25
 10
100.147
 20
9.24518
 10
100.294
 20
9.23075
 10
100.439
 20
9.20677
 10
100.582
 20
9.17333
 10
100.723
 20
9.13059
 10
100.861
 20
9.07873
 10
100.995
 20
9.01796
 10
101.125
 20
8.94856
 10
101.25
 20
8.87081
 10
101.37
 20
8.78505
 10
101.484
 20
8.69164
 10
101.591
 20
8.59099
 10
101.692
 20
8.48353
 10
101.785
 20
8.36971
 10
101.871
 20
8.25003
 10
101.949
 20
8.125
 10
102.018
 20
7.99515
 10
102.079
 20
7.86104
 10
102.131
 20
7.72324
 10
102.173
 20
7.58234
 10
102.207
 20
7.43895
 10
102.231
 20
7.29368
 10
102.245
 20
7.14716
 10
102.25
 20
7
 10
102.245
 20
6.85284
 10
102.231
 20
6.70632
 10
102.207
 20
6.56105
 10
102.173
 20
6.41766
 10
102.131
 20
6.27676
 10
102.079
 20
6.13896
 10
102.018
 20
6.00485
 10
101.949
 20
5.875
 10
101.871
 20
5.74997
 10
101.785
 20
5.63029
 10
101.692
 20
5.51647
 10
101.591
 20
5.40901
 10
101.484
 20
5.30836
 10
101.37
 20
5.21495
 10
101.25
 20
5.12919
 10
101.125
 20
5.05144
 10
100.995
 20
4.98204
 10
100.861
 20
4.92127
 10
100.723
 20
4.86941
 10
100.582
 20
4.82667
 10
100.439
 20
4.79323
 10
100.294
 20
4.76925
 10
100.147
 20
4.75482
 10
100
 20
4.75
  0
ENDSEC
  0
EOF
