999
DXF from OpenSCAD
  0
SECTION
  2
HEADER
  9
$ACADVER
  1
AC1006
  9
$INSBASE
 10
0.0
 20
0.0
 30
0.0
  9
$EXTMIN
 10
-112.667
 20
-249.333
  9
$EXTMAX
 10
112.667
 20
2.22507e-308
  9
$LINMIN
 10
-112.667
 20
-249.333
  9
$LINMAX
 10
112.667
 20
2.22507e-308
  0
ENDSEC
  0
SECTION
  2
TABLES
  0
TABLE
  2
LTYPE
 70
1
  0
LTYPE
  2
CONTINUOUS
 70
64
  3
Solid line
 72
65
 73
0
 40
0.000000
  0
ENDTAB
  0
TABLE
  2
LAYER
 70
6
  0
LAYER
  2
0
 70
64
 62
7
  6
CONTINUOUS
  0
ENDTAB
  0
TABLE
  2
STYLE
 70
0
  0
ENDTAB
  0
ENDSEC
  0
SECTION
  2
BLOCKS
  0
ENDSEC
  0
SECTION
  2
ENTITIES
  0
LWPOLYLINE
100
AcDbEntity
  8
0
100
AcDbPolyline
 90
4
 70
1
 10
112.667
 20
-40.6667
 10
-112.667
 20
-40.6667
 10
-112.667
 20
-249.333
 10
112.667
 20
-249.333
  0
LWPOLYLINE
100
AcDbEntity
  8
0
100
AcDbPolyline
 90
96
 70
1
 10
-105.814
 20
-49.9118
 10
-105.96
 20
-49.8974
 10
-106.106
 20
-49.8734
 10
-106.249
 20
-49.84
 10
-106.39
 20
-49.7973
 10
-106.528
 20
-49.7454
 10
-106.662
 20
-49.6846
 10
-106.792
 20
-49.6152
 10
-106.917
 20
-49.5375
 10
-107.036
 20
-49.4517
 10
-107.15
 20
-49.3583
 10
-107.258
 20
-49.2577
 10
-107.358
 20
-49.1502
 10
-107.452
 20
-49.0364
 10
-107.537
 20
-48.9167
 10
-107.615
 20
-48.7917
 10
-107.685
 20
-48.6618
 10
-107.745
 20
-48.5277
 10
-107.797
 20
-48.3899
 10
-107.84
 20
-48.249
 10
-107.873
 20
-48.1056
 10
-107.897
 20
-47.9604
 10
-107.912
 20
-47.8138
 10
-107.917
 20
-47.6667
 10
-107.912
 20
-47.5195
 10
-107.897
 20
-47.373
 10
-107.873
 20
-47.2277
 10
-107.84
 20
-47.0843
 10
-107.797
 20
-46.9434
 10
-107.745
 20
-46.8056
 10
-107.685
 20
-46.6715
 10
-107.615
 20
-46.5417
 10
-107.537
 20
-46.4166
 10
-107.452
 20
-46.297
 10
-107.358
 20
-46.1831
 10
-107.258
 20
-46.0757
 10
-107.15
 20
-45.975
 10
-107.036
 20
-45.8816
 10
-106.917
 20
-45.7959
 10
-106.792
 20
-45.7181
 10
-106.662
 20
-45.6487
 10
-106.528
 20
-45.5879
 10
-106.39
 20
-45.5361
 10
-106.249
 20
-45.4933
 10
-106.106
 20
-45.4599
 10
-105.96
 20
-45.4359
 10
-105.814
 20
-45.4215
 10
-105.667
 20
-45.4167
 10
-105.52
 20
-45.4215
 10
-105.373
 20
-45.4359
 10
-105.228
 20
-45.4599
 10
-105.084
 20
-45.4933
 10
-104.943
 20
-45.5361
 10
-104.806
 20
-45.5879
 10
-104.672
 20
-45.6487
 10
-104.542
 20
-45.7181
 10
-104.417
 20
-45.7959
 10
-104.297
 20
-45.8816
 10
-104.183
 20
-45.975
 10
-104.076
 20
-46.0757
 10
-103.975
 20
-46.1831
 10
-103.882
 20
-46.297
 10
-103.796
 20
-46.4166
 10
-103.718
 20
-46.5417
 10
-103.649
 20
-46.6715
 10
-103.588
 20
-46.8056
 10
-103.536
 20
-46.9434
 10
-103.493
 20
-47.0843
 10
-103.46
 20
-47.2277
 10
-103.436
 20
-47.373
 10
-103.421
 20
-47.5195
 10
-103.417
 20
-47.6667
 10
-103.421
 20
-47.8138
 10
-103.436
 20
-47.9604
 10
-103.46
 20
-48.1056
 10
-103.493
 20
-48.249
 10
-103.536
 20
-48.3899
 10
-103.588
 20
-48.5277
 10
-103.649
 20
-48.6618
 10
-103.718
 20
-48.7917
 10
-103.796
 20
-48.9167
 10
-103.882
 20
-49.0364
 10
-103.975
 20
-49.1502
 10
-104.076
 20
-49.2577
 10
-104.183
 20
-49.3583
 10
-104.297
 20
-49.4517
 10
-104.417
 20
-49.5375
 10
-104.542
 20
-49.6152
 10
-104.672
 20
-49.6846
 10
-104.806
 20
-49.7454
 10
-104.943
 20
-49.7973
 10
-105.084
 20
-49.84
 10
-105.228
 20
-49.8734
 10
-105.373
 20
-49.8974
 10
-105.52
 20
-49.9118
 10
-105.667
 20
-49.9167
  0
LWPOLYLINE
100
AcDbEntity
  8
0
100
AcDbPolyline
 90
96
 70
1
 10
105.52
 20
-49.9118
 10
105.373
 20
-49.8974
 10
105.228
 20
-49.8734
 10
105.084
 20
-49.84
 10
104.943
 20
-49.7973
 10
104.806
 20
-49.7454
 10
104.672
 20
-49.6846
 10
104.542
 20
-49.6152
 10
104.417
 20
-49.5375
 10
104.297
 20
-49.4517
 10
104.183
 20
-49.3583
 10
104.076
 20
-49.2577
 10
103.975
 20
-49.1502
 10
103.882
 20
-49.0364
 10
103.796
 20
-48.9167
 10
103.718
 20
-48.7917
 10
103.649
 20
-48.6618
 10
103.588
 20
-48.5277
 10
103.536
 20
-48.3899
 10
103.493
 20
-48.249
 10
103.46
 20
-48.1056
 10
103.436
 20
-47.9604
 10
103.421
 20
-47.8138
 10
103.417
 20
-47.6667
 10
103.421
 20
-47.5195
 10
103.436
 20
-47.373
 10
103.46
 20
-47.2277
 10
103.493
 20
-47.0843
 10
103.536
 20
-46.9434
 10
103.588
 20
-46.8056
 10
103.649
 20
-46.6715
 10
103.718
 20
-46.5417
 10
103.796
 20
-46.4166
 10
103.882
 20
-46.297
 10
103.975
 20
-46.1831
 10
104.076
 20
-46.0757
 10
104.183
 20
-45.975
 10
104.297
 20
-45.8816
 10
104.417
 20
-45.7959
 10
104.542
 20
-45.7181
 10
104.672
 20
-45.6487
 10
104.806
 20
-45.5879
 10
104.943
 20
-45.5361
 10
105.084
 20
-45.4933
 10
105.228
 20
-45.4599
 10
105.373
 20
-45.4359
 10
105.52
 20
-45.4215
 10
105.667
 20
-45.4167
 10
105.814
 20
-45.4215
 10
105.96
 20
-45.4359
 10
106.106
 20
-45.4599
 10
106.249
 20
-45.4933
 10
106.39
 20
-45.5361
 10
106.528
 20
-45.5879
 10
106.662
 20
-45.6487
 10
106.792
 20
-45.7181
 10
106.917
 20
-45.7959
 10
107.036
 20
-45.8816
 10
107.15
 20
-45.975
 10
107.258
 20
-46.0757
 10
107.358
 20
-46.1831
 10
107.452
 20
-46.297
 10
107.537
 20
-46.4166
 10
107.615
 20
-46.5417
 10
107.685
 20
-46.6715
 10
107.745
 20
-46.8056
 10
107.797
 20
-46.9434
 10
107.84
 20
-47.0843
 10
107.873
 20
-47.2277
 10
107.897
 20
-47.373
 10
107.912
 20
-47.5195
 10
107.917
 20
-47.6667
 10
107.912
 20
-47.8138
 10
107.897
 20
-47.9604
 10
107.873
 20
-48.1056
 10
107.84
 20
-48.249
 10
107.797
 20
-48.3899
 10
107.745
 20
-48.5277
 10
107.685
 20
-48.6618
 10
107.615
 20
-48.7917
 10
107.537
 20
-48.9167
 10
107.452
 20
-49.0364
 10
107.358
 20
-49.1502
 10
107.258
 20
-49.2577
 10
107.15
 20
-49.3583
 10
107.036
 20
-49.4517
 10
106.917
 20
-49.5375
 10
106.792
 20
-49.6152
 10
106.662
 20
-49.6846
 10
106.528
 20
-49.7454
 10
106.39
 20
-49.7973
 10
106.249
 20
-49.84
 10
106.106
 20
-49.8734
 10
105.96
 20
-49.8974
 10
105.814
 20
-49.9118
 10
105.667
 20
-49.9167
  0
LWPOLYLINE
100
AcDbEntity
  8
0
100
AcDbPolyline
 90
102
 70
1
 10
-29.7
 20
-232.845
 10
-34.0163
 20
-232.704
 10
-38.3141
 20
-232.28
 10
-42.575
 20
-231.577
 10
-46.7808
 20
-230.596
 10
-50.9134
 20
-229.343
 10
-54.9552
 20
-227.821
 10
-58.8888
 20
-226.039
 10
-62.6975
 20
-224.003
 10
-66.3649
 20
-221.723
 10
-69.8752
 20
-219.207
 10
-73.2135
 20
-216.468
 10
-76.3655
 20
-213.516
 10
-79.3177
 20
-210.364
 10
-82.0574
 20
-207.025
 10
-84.5728
 20
-203.515
 10
-86.8533
 20
-199.847
 10
-88.8891
 20
-196.039
 10
-90.6714
 20
-192.105
 10
-92.1927
 20
-188.063
 10
-93.4463
 20
-183.931
 10
-94.4269
 20
-179.725
 10
-95.1304
 20
-175.464
 10
-95.5537
 20
-171.166
 10
-95.695
 20
-166.85
 10
-95.695
 20
-123.95
 10
-95.5537
 20
-119.634
 10
-95.4984
 20
-118.443
 10
-95.0794
 20
-114.188
 10
-94.3829
 20
-109.97
 10
-93.412
 20
-105.806
 10
-92.1708
 20
-101.714
 10
-90.6647
 20
-97.7128
 10
-88.9002
 20
-93.8183
 10
-86.8847
 20
-90.0475
 10
-84.6268
 20
-86.4166
 10
-82.1364
 20
-82.9412
 10
-79.424
 20
-79.6361
 10
-76.5012
 20
-76.5155
 10
-73.3806
 20
-73.5927
 10
-70.0755
 20
-70.8803
 10
-66.6
 20
-68.3898
 10
-62.9692
 20
-66.132
 10
-59.1984
 20
-64.1165
 10
-55.3039
 20
-62.3519
 10
-51.3023
 20
-60.8458
 10
-47.2108
 20
-59.6047
 10
-43.0469
 20
-58.6338
 10
-38.8284
 20
-57.9373
 10
-34.5733
 20
-57.5182
 10
-30.3
 20
-57.3783
 10
30.3
 20
-57.3783
 10
34.5733
 20
-57.5182
 10
38.8284
 20
-57.9373
 10
43.0469
 20
-58.6338
 10
47.2108
 20
-59.6047
 10
51.3023
 20
-60.8458
 10
55.3039
 20
-62.3519
 10
59.1984
 20
-64.1165
 10
62.9692
 20
-66.132
 10
66.6
 20
-68.3898
 10
70.0755
 20
-70.8803
 10
73.3806
 20
-73.5927
 10
76.5012
 20
-76.5155
 10
79.424
 20
-79.6361
 10
82.1364
 20
-82.9412
 10
84.6268
 20
-86.4166
 10
86.8847
 20
-90.0475
 10
88.9002
 20
-93.8183
 10
90.6647
 20
-97.7128
 10
92.1708
 20
-101.714
 10
93.412
 20
-105.806
 10
94.3829
 20
-109.97
 10
95.0794
 20
-114.188
 10
95.4984
 20
-118.443
 10
95.5537
 20
-119.634
 10
95.695
 20
-123.95
 10
95.695
 20
-166.85
 10
95.5537
 20
-171.166
 10
95.1304
 20
-175.464
 10
94.4269
 20
-179.725
 10
93.4463
 20
-183.931
 10
92.1927
 20
-188.063
 10
90.6714
 20
-192.105
 10
88.8891
 20
-196.039
 10
86.8533
 20
-199.847
 10
84.5728
 20
-203.515
 10
82.0574
 20
-207.025
 10
79.3177
 20
-210.364
 10
76.3655
 20
-213.516
 10
73.2135
 20
-216.468
 10
69.8752
 20
-219.207
 10
66.3649
 20
-221.723
 10
62.6975
 20
-224.003
 10
58.8888
 20
-226.039
 10
54.9552
 20
-227.821
 10
50.9134
 20
-229.343
 10
46.7808
 20
-230.596
 10
42.575
 20
-231.577
 10
38.3141
 20
-232.28
 10
34.0163
 20
-232.704
 10
29.7
 20
-232.845
  0
LWPOLYLINE
100
AcDbEntity
  8
0
100
AcDbPolyline
 90
96
 70
1
 10
-105.814
 20
-147.245
 10
-105.96
 20
-147.231
 10
-106.106
 20
-147.207
 10
-106.249
 20
-147.173
 10
-106.39
 20
-147.131
 10
-106.528
 20
-147.079
 10
-106.662
 20
-147.018
 10
-106.792
 20
-146.949
 10
-106.917
 20
-146.871
 10
-107.036
 20
-146.785
 10
-107.15
 20
-146.692
 10
-107.258
 20
-146.591
 10
-107.358
 20
-146.484
 10
-107.452
 20
-146.37
 10
-107.537
 20
-146.25
 10
-107.615
 20
-146.125
 10
-107.685
 20
-145.995
 10
-107.745
 20
-145.861
 10
-107.797
 20
-145.723
 10
-107.84
 20
-145.582
 10
-107.873
 20
-145.439
 10
-107.897
 20
-145.294
 10
-107.912
 20
-145.147
 10
-107.917
 20
-145
 10
-107.912
 20
-144.853
 10
-107.897
 20
-144.706
 10
-107.873
 20
-144.561
 10
-107.84
 20
-144.418
 10
-107.797
 20
-144.277
 10
-107.745
 20
-144.139
 10
-107.685
 20
-144.005
 10
-107.615
 20
-143.875
 10
-107.537
 20
-143.75
 10
-107.452
 20
-143.63
 10
-107.358
 20
-143.516
 10
-107.258
 20
-143.409
 10
-107.15
 20
-143.308
 10
-107.036
 20
-143.215
 10
-106.917
 20
-143.129
 10
-106.792
 20
-143.051
 10
-106.662
 20
-142.982
 10
-106.528
 20
-142.921
 10
-106.39
 20
-142.869
 10
-106.249
 20
-142.827
 10
-106.106
 20
-142.793
 10
-105.96
 20
-142.769
 10
-105.814
 20
-142.755
 10
-105.667
 20
-142.75
 10
-105.52
 20
-142.755
 10
-105.373
 20
-142.769
 10
-105.228
 20
-142.793
 10
-105.084
 20
-142.827
 10
-104.943
 20
-142.869
 10
-104.806
 20
-142.921
 10
-104.672
 20
-142.982
 10
-104.542
 20
-143.051
 10
-104.417
 20
-143.129
 10
-104.297
 20
-143.215
 10
-104.183
 20
-143.308
 10
-104.076
 20
-143.409
 10
-103.975
 20
-143.516
 10
-103.882
 20
-143.63
 10
-103.796
 20
-143.75
 10
-103.718
 20
-143.875
 10
-103.649
 20
-144.005
 10
-103.588
 20
-144.139
 10
-103.536
 20
-144.277
 10
-103.493
 20
-144.418
 10
-103.46
 20
-144.561
 10
-103.436
 20
-144.706
 10
-103.421
 20
-144.853
 10
-103.417
 20
-145
 10
-103.421
 20
-145.147
 10
-103.436
 20
-145.294
 10
-103.46
 20
-145.439
 10
-103.493
 20
-145.582
 10
-103.536
 20
-145.723
 10
-103.588
 20
-145.861
 10
-103.649
 20
-145.995
 10
-103.718
 20
-146.125
 10
-103.796
 20
-146.25
 10
-103.882
 20
-146.37
 10
-103.975
 20
-146.484
 10
-104.076
 20
-146.591
 10
-104.183
 20
-146.692
 10
-104.297
 20
-146.785
 10
-104.417
 20
-146.871
 10
-104.542
 20
-146.949
 10
-104.672
 20
-147.018
 10
-104.806
 20
-147.079
 10
-104.943
 20
-147.131
 10
-105.084
 20
-147.173
 10
-105.228
 20
-147.207
 10
-105.373
 20
-147.231
 10
-105.52
 20
-147.245
 10
-105.667
 20
-147.25
  0
LWPOLYLINE
100
AcDbEntity
  8
0
100
AcDbPolyline
 90
96
 70
1
 10
105.52
 20
-147.245
 10
105.373
 20
-147.231
 10
105.228
 20
-147.207
 10
105.084
 20
-147.173
 10
104.943
 20
-147.131
 10
104.806
 20
-147.079
 10
104.672
 20
-147.018
 10
104.542
 20
-146.949
 10
104.417
 20
-146.871
 10
104.297
 20
-146.785
 10
104.183
 20
-146.692
 10
104.076
 20
-146.591
 10
103.975
 20
-146.484
 10
103.882
 20
-146.37
 10
103.796
 20
-146.25
 10
103.718
 20
-146.125
 10
103.649
 20
-145.995
 10
103.588
 20
-145.861
 10
103.536
 20
-145.723
 10
103.493
 20
-145.582
 10
103.46
 20
-145.439
 10
103.436
 20
-145.294
 10
103.421
 20
-145.147
 10
103.417
 20
-145
 10
103.421
 20
-144.853
 10
103.436
 20
-144.706
 10
103.46
 20
-144.561
 10
103.493
 20
-144.418
 10
103.536
 20
-144.277
 10
103.588
 20
-144.139
 10
103.649
 20
-144.005
 10
103.718
 20
-143.875
 10
103.796
 20
-143.75
 10
103.882
 20
-143.63
 10
103.975
 20
-143.516
 10
104.076
 20
-143.409
 10
104.183
 20
-143.308
 10
104.297
 20
-143.215
 10
104.417
 20
-143.129
 10
104.542
 20
-143.051
 10
104.672
 20
-142.982
 10
104.806
 20
-142.921
 10
104.943
 20
-142.869
 10
105.084
 20
-142.827
 10
105.228
 20
-142.793
 10
105.373
 20
-142.769
 10
105.52
 20
-142.755
 10
105.667
 20
-142.75
 10
105.814
 20
-142.755
 10
105.96
 20
-142.769
 10
106.106
 20
-142.793
 10
106.249
 20
-142.827
 10
106.39
 20
-142.869
 10
106.528
 20
-142.921
 10
106.662
 20
-142.982
 10
106.792
 20
-143.051
 10
106.917
 20
-143.129
 10
107.036
 20
-143.215
 10
107.15
 20
-143.308
 10
107.258
 20
-143.409
 10
107.358
 20
-143.516
 10
107.452
 20
-143.63
 10
107.537
 20
-143.75
 10
107.615
 20
-143.875
 10
107.685
 20
-144.005
 10
107.745
 20
-144.139
 10
107.797
 20
-144.277
 10
107.84
 20
-144.418
 10
107.873
 20
-144.561
 10
107.897
 20
-144.706
 10
107.912
 20
-144.853
 10
107.917
 20
-145
 10
107.912
 20
-145.147
 10
107.897
 20
-145.294
 10
107.873
 20
-145.439
 10
107.84
 20
-145.582
 10
107.797
 20
-145.723
 10
107.745
 20
-145.861
 10
107.685
 20
-145.995
 10
107.615
 20
-146.125
 10
107.537
 20
-146.25
 10
107.452
 20
-146.37
 10
107.358
 20
-146.484
 10
107.258
 20
-146.591
 10
107.15
 20
-146.692
 10
107.036
 20
-146.785
 10
106.917
 20
-146.871
 10
106.792
 20
-146.949
 10
106.662
 20
-147.018
 10
106.528
 20
-147.079
 10
106.39
 20
-147.131
 10
106.249
 20
-147.173
 10
106.106
 20
-147.207
 10
105.96
 20
-147.231
 10
105.814
 20
-147.245
 10
105.667
 20
-147.25
  0
LWPOLYLINE
100
AcDbEntity
  8
0
100
AcDbPolyline
 90
96
 70
1
 10
-105.814
 20
-244.579
 10
-105.96
 20
-244.564
 10
-106.106
 20
-244.54
 10
-106.249
 20
-244.507
 10
-106.39
 20
-244.464
 10
-106.528
 20
-244.412
 10
-106.662
 20
-244.351
 10
-106.792
 20
-244.282
 10
-106.917
 20
-244.204
 10
-107.036
 20
-244.118
 10
-107.15
 20
-244.025
 10
-107.258
 20
-243.924
 10
-107.358
 20
-243.817
 10
-107.452
 20
-243.703
 10
-107.537
 20
-243.583
 10
-107.615
 20
-243.458
 10
-107.685
 20
-243.328
 10
-107.745
 20
-243.194
 10
-107.797
 20
-243.057
 10
-107.84
 20
-242.916
 10
-107.873
 20
-242.772
 10
-107.897
 20
-242.627
 10
-107.912
 20
-242.48
 10
-107.917
 20
-242.333
 10
-107.912
 20
-242.186
 10
-107.897
 20
-242.04
 10
-107.873
 20
-241.894
 10
-107.84
 20
-241.751
 10
-107.797
 20
-241.61
 10
-107.745
 20
-241.472
 10
-107.685
 20
-241.338
 10
-107.615
 20
-241.208
 10
-107.537
 20
-241.083
 10
-107.452
 20
-240.964
 10
-107.358
 20
-240.85
 10
-107.258
 20
-240.742
 10
-107.15
 20
-240.642
 10
-107.036
 20
-240.548
 10
-106.917
 20
-240.463
 10
-106.792
 20
-240.385
 10
-106.662
 20
-240.315
 10
-106.528
 20
-240.255
 10
-106.39
 20
-240.203
 10
-106.249
 20
-240.16
 10
-106.106
 20
-240.127
 10
-105.96
 20
-240.103
 10
-105.814
 20
-240.088
 10
-105.667
 20
-240.083
 10
-105.52
 20
-240.088
 10
-105.373
 20
-240.103
 10
-105.228
 20
-240.127
 10
-105.084
 20
-240.16
 10
-104.943
 20
-240.203
 10
-104.806
 20
-240.255
 10
-104.672
 20
-240.315
 10
-104.542
 20
-240.385
 10
-104.417
 20
-240.463
 10
-104.297
 20
-240.548
 10
-104.183
 20
-240.642
 10
-104.076
 20
-240.742
 10
-103.975
 20
-240.85
 10
-103.882
 20
-240.964
 10
-103.796
 20
-241.083
 10
-103.718
 20
-241.208
 10
-103.649
 20
-241.338
 10
-103.588
 20
-241.472
 10
-103.536
 20
-241.61
 10
-103.493
 20
-241.751
 10
-103.46
 20
-241.894
 10
-103.436
 20
-242.04
 10
-103.421
 20
-242.186
 10
-103.417
 20
-242.333
 10
-103.421
 20
-242.48
 10
-103.436
 20
-242.627
 10
-103.46
 20
-242.772
 10
-103.493
 20
-242.916
 10
-103.536
 20
-243.057
 10
-103.588
 20
-243.194
 10
-103.649
 20
-243.328
 10
-103.718
 20
-243.458
 10
-103.796
 20
-243.583
 10
-103.882
 20
-243.703
 10
-103.975
 20
-243.817
 10
-104.076
 20
-243.924
 10
-104.183
 20
-244.025
 10
-104.297
 20
-244.118
 10
-104.417
 20
-244.204
 10
-104.542
 20
-244.282
 10
-104.672
 20
-244.351
 10
-104.806
 20
-244.412
 10
-104.943
 20
-244.464
 10
-105.084
 20
-244.507
 10
-105.228
 20
-244.54
 10
-105.373
 20
-244.564
 10
-105.52
 20
-244.579
 10
-105.667
 20
-244.583
  0
LWPOLYLINE
100
AcDbEntity
  8
0
100
AcDbPolyline
 90
96
 70
1
 10
105.52
 20
-244.579
 10
105.373
 20
-244.564
 10
105.228
 20
-244.54
 10
105.084
 20
-244.507
 10
104.943
 20
-244.464
 10
104.806
 20
-244.412
 10
104.672
 20
-244.351
 10
104.542
 20
-244.282
 10
104.417
 20
-244.204
 10
104.297
 20
-244.118
 10
104.183
 20
-244.025
 10
104.076
 20
-243.924
 10
103.975
 20
-243.817
 10
103.882
 20
-243.703
 10
103.796
 20
-243.583
 10
103.718
 20
-243.458
 10
103.649
 20
-243.328
 10
103.588
 20
-243.194
 10
103.536
 20
-243.057
 10
103.493
 20
-242.916
 10
103.46
 20
-242.772
 10
103.436
 20
-242.627
 10
103.421
 20
-242.48
 10
103.417
 20
-242.333
 10
103.421
 20
-242.186
 10
103.436
 20
-242.04
 10
103.46
 20
-241.894
 10
103.493
 20
-241.751
 10
103.536
 20
-241.61
 10
103.588
 20
-241.472
 10
103.649
 20
-241.338
 10
103.718
 20
-241.208
 10
103.796
 20
-241.083
 10
103.882
 20
-240.964
 10
103.975
 20
-240.85
 10
104.076
 20
-240.742
 10
104.183
 20
-240.642
 10
104.297
 20
-240.548
 10
104.417
 20
-240.463
 10
104.542
 20
-240.385
 10
104.672
 20
-240.315
 10
104.806
 20
-240.255
 10
104.943
 20
-240.203
 10
105.084
 20
-240.16
 10
105.228
 20
-240.127
 10
105.373
 20
-240.103
 10
105.52
 20
-240.088
 10
105.667
 20
-240.083
 10
105.814
 20
-240.088
 10
105.96
 20
-240.103
 10
106.106
 20
-240.127
 10
106.249
 20
-240.16
 10
106.39
 20
-240.203
 10
106.528
 20
-240.255
 10
106.662
 20
-240.315
 10
106.792
 20
-240.385
 10
106.917
 20
-240.463
 10
107.036
 20
-240.548
 10
107.15
 20
-240.642
 10
107.258
 20
-240.742
 10
107.358
 20
-240.85
 10
107.452
 20
-240.964
 10
107.537
 20
-241.083
 10
107.615
 20
-241.208
 10
107.685
 20
-241.338
 10
107.745
 20
-241.472
 10
107.797
 20
-241.61
 10
107.84
 20
-241.751
 10
107.873
 20
-241.894
 10
107.897
 20
-242.04
 10
107.912
 20
-242.186
 10
107.917
 20
-242.333
 10
107.912
 20
-242.48
 10
107.897
 20
-242.627
 10
107.873
 20
-242.772
 10
107.84
 20
-242.916
 10
107.797
 20
-243.057
 10
107.745
 20
-243.194
 10
107.685
 20
-243.328
 10
107.615
 20
-243.458
 10
107.537
 20
-243.583
 10
107.452
 20
-243.703
 10
107.358
 20
-243.817
 10
107.258
 20
-243.924
 10
107.15
 20
-244.025
 10
107.036
 20
-244.118
 10
106.917
 20
-244.204
 10
106.792
 20
-244.282
 10
106.662
 20
-244.351
 10
106.528
 20
-244.412
 10
106.39
 20
-244.464
 10
106.249
 20
-244.507
 10
106.106
 20
-244.54
 10
105.96
 20
-244.564
 10
105.814
 20
-244.579
 10
105.667
 20
-244.583
  0
ENDSEC
  0
EOF
