999
DXF from OpenSCAD
  0
SECTION
  2
HEADER
  9
$ACADVER
  1
AC1006
  9
$INSBASE
 10
0.0
 20
0.0
 30
0.0
  9
$EXTMIN
 10
-109.833
 20
-198.167
  9
$EXTMAX
 10
109.833
 20
2.22507e-308
  9
$LINMIN
 10
-109.833
 20
-198.167
  9
$LINMAX
 10
109.833
 20
2.22507e-308
  0
ENDSEC
  0
SECTION
  2
TABLES
  0
TABLE
  2
LTYPE
 70
1
  0
LTYPE
  2
CONTINUOUS
 70
64
  3
Solid line
 72
65
 73
0
 40
0.000000
  0
ENDTAB
  0
TABLE
  2
LAYER
 70
6
  0
LAYER
  2
0
 70
64
 62
7
  6
CONTINUOUS
  0
ENDTAB
  0
TABLE
  2
STYLE
 70
0
  0
ENDTAB
  0
ENDSEC
  0
SECTION
  2
BLOCKS
  0
ENDSEC
  0
SECTION
  2
ENTITIES
  0
LWPOLYLINE
100
AcDbEntity
  8
0
100
AcDbPolyline
 90
4
 70
1
 10
109.833
 20
-11.8333
 10
-109.833
 20
-11.8333
 10
-109.833
 20
-198.167
 10
109.833
 20
-198.167
  0
LWPOLYLINE
100
AcDbEntity
  8
0
100
AcDbPolyline
 90
96
 70
1
 10
-102.98
 20
-21.0785
 10
-103.127
 20
-21.0641
 10
-103.272
 20
-21.0401
 10
-103.416
 20
-21.0067
 10
-103.557
 20
-20.9639
 10
-103.694
 20
-20.9121
 10
-103.828
 20
-20.8513
 10
-103.958
 20
-20.7819
 10
-104.083
 20
-20.7041
 10
-104.203
 20
-20.6184
 10
-104.317
 20
-20.525
 10
-104.424
 20
-20.4243
 10
-104.525
 20
-20.3169
 10
-104.618
 20
-20.203
 10
-104.704
 20
-20.0834
 10
-104.782
 20
-19.9583
 10
-104.851
 20
-19.8285
 10
-104.912
 20
-19.6944
 10
-104.964
 20
-19.5566
 10
-105.007
 20
-19.4157
 10
-105.04
 20
-19.2723
 10
-105.064
 20
-19.127
 10
-105.079
 20
-18.9805
 10
-105.083
 20
-18.8333
 10
-105.079
 20
-18.6862
 10
-105.064
 20
-18.5396
 10
-105.04
 20
-18.3944
 10
-105.007
 20
-18.251
 10
-104.964
 20
-18.1101
 10
-104.912
 20
-17.9723
 10
-104.851
 20
-17.8382
 10
-104.782
 20
-17.7083
 10
-104.704
 20
-17.5833
 10
-104.618
 20
-17.4636
 10
-104.525
 20
-17.3498
 10
-104.424
 20
-17.2423
 10
-104.317
 20
-17.1417
 10
-104.203
 20
-17.0483
 10
-104.083
 20
-16.9625
 10
-103.958
 20
-16.8848
 10
-103.828
 20
-16.8154
 10
-103.694
 20
-16.7546
 10
-103.557
 20
-16.7027
 10
-103.416
 20
-16.66
 10
-103.272
 20
-16.6266
 10
-103.127
 20
-16.6026
 10
-102.98
 20
-16.5882
 10
-102.833
 20
-16.5833
 10
-102.686
 20
-16.5882
 10
-102.54
 20
-16.6026
 10
-102.394
 20
-16.6266
 10
-102.251
 20
-16.66
 10
-102.11
 20
-16.7027
 10
-101.972
 20
-16.7546
 10
-101.838
 20
-16.8154
 10
-101.708
 20
-16.8848
 10
-101.583
 20
-16.9625
 10
-101.464
 20
-17.0483
 10
-101.35
 20
-17.1417
 10
-101.242
 20
-17.2423
 10
-101.142
 20
-17.3498
 10
-101.048
 20
-17.4636
 10
-100.963
 20
-17.5833
 10
-100.885
 20
-17.7083
 10
-100.815
 20
-17.8382
 10
-100.755
 20
-17.9723
 10
-100.703
 20
-18.1101
 10
-100.66
 20
-18.251
 10
-100.627
 20
-18.3944
 10
-100.603
 20
-18.5396
 10
-100.588
 20
-18.6862
 10
-100.583
 20
-18.8333
 10
-100.588
 20
-18.9805
 10
-100.603
 20
-19.127
 10
-100.627
 20
-19.2723
 10
-100.66
 20
-19.4157
 10
-100.703
 20
-19.5566
 10
-100.755
 20
-19.6944
 10
-100.815
 20
-19.8285
 10
-100.885
 20
-19.9583
 10
-100.963
 20
-20.0834
 10
-101.048
 20
-20.203
 10
-101.142
 20
-20.3169
 10
-101.242
 20
-20.4243
 10
-101.35
 20
-20.525
 10
-101.464
 20
-20.6184
 10
-101.583
 20
-20.7041
 10
-101.708
 20
-20.7819
 10
-101.838
 20
-20.8513
 10
-101.972
 20
-20.9121
 10
-102.11
 20
-20.9639
 10
-102.251
 20
-21.0067
 10
-102.394
 20
-21.0401
 10
-102.54
 20
-21.0641
 10
-102.686
 20
-21.0785
 10
-102.833
 20
-21.0833
  0
LWPOLYLINE
100
AcDbEntity
  8
0
100
AcDbPolyline
 90
96
 70
1
 10
102.686
 20
-21.0785
 10
102.54
 20
-21.0641
 10
102.394
 20
-21.0401
 10
102.251
 20
-21.0067
 10
102.11
 20
-20.9639
 10
101.972
 20
-20.9121
 10
101.838
 20
-20.8513
 10
101.708
 20
-20.7819
 10
101.583
 20
-20.7041
 10
101.464
 20
-20.6184
 10
101.35
 20
-20.525
 10
101.242
 20
-20.4243
 10
101.142
 20
-20.3169
 10
101.048
 20
-20.203
 10
100.963
 20
-20.0834
 10
100.885
 20
-19.9583
 10
100.815
 20
-19.8285
 10
100.755
 20
-19.6944
 10
100.703
 20
-19.5566
 10
100.66
 20
-19.4157
 10
100.627
 20
-19.2723
 10
100.603
 20
-19.127
 10
100.588
 20
-18.9805
 10
100.583
 20
-18.8333
 10
100.588
 20
-18.6862
 10
100.603
 20
-18.5396
 10
100.627
 20
-18.3944
 10
100.66
 20
-18.251
 10
100.703
 20
-18.1101
 10
100.755
 20
-17.9723
 10
100.815
 20
-17.8382
 10
100.885
 20
-17.7083
 10
100.963
 20
-17.5833
 10
101.048
 20
-17.4636
 10
101.142
 20
-17.3498
 10
101.242
 20
-17.2423
 10
101.35
 20
-17.1417
 10
101.464
 20
-17.0483
 10
101.583
 20
-16.9625
 10
101.708
 20
-16.8848
 10
101.838
 20
-16.8154
 10
101.972
 20
-16.7546
 10
102.11
 20
-16.7027
 10
102.251
 20
-16.66
 10
102.394
 20
-16.6266
 10
102.54
 20
-16.6026
 10
102.686
 20
-16.5882
 10
102.833
 20
-16.5833
 10
102.98
 20
-16.5882
 10
103.127
 20
-16.6026
 10
103.272
 20
-16.6266
 10
103.416
 20
-16.66
 10
103.557
 20
-16.7027
 10
103.694
 20
-16.7546
 10
103.828
 20
-16.8154
 10
103.958
 20
-16.8848
 10
104.083
 20
-16.9625
 10
104.203
 20
-17.0483
 10
104.317
 20
-17.1417
 10
104.424
 20
-17.2423
 10
104.525
 20
-17.3498
 10
104.618
 20
-17.4636
 10
104.704
 20
-17.5833
 10
104.782
 20
-17.7083
 10
104.851
 20
-17.8382
 10
104.912
 20
-17.9723
 10
104.964
 20
-18.1101
 10
105.007
 20
-18.251
 10
105.04
 20
-18.3944
 10
105.064
 20
-18.5396
 10
105.079
 20
-18.6862
 10
105.083
 20
-18.8333
 10
105.079
 20
-18.9805
 10
105.064
 20
-19.127
 10
105.04
 20
-19.2723
 10
105.007
 20
-19.4157
 10
104.964
 20
-19.5566
 10
104.912
 20
-19.6944
 10
104.851
 20
-19.8285
 10
104.782
 20
-19.9583
 10
104.704
 20
-20.0834
 10
104.618
 20
-20.203
 10
104.525
 20
-20.3169
 10
104.424
 20
-20.4243
 10
104.317
 20
-20.525
 10
104.203
 20
-20.6184
 10
104.083
 20
-20.7041
 10
103.958
 20
-20.7819
 10
103.828
 20
-20.8513
 10
103.694
 20
-20.9121
 10
103.557
 20
-20.9639
 10
103.416
 20
-21.0067
 10
103.272
 20
-21.0401
 10
103.127
 20
-21.0641
 10
102.98
 20
-21.0785
 10
102.833
 20
-21.0833
  0
LWPOLYLINE
100
AcDbEntity
  8
0
100
AcDbPolyline
 90
102
 70
1
 10
-59.7
 20
-181.678
 10
-61.8689
 20
-181.607
 10
-64.0285
 20
-181.395
 10
-66.1695
 20
-181.041
 10
-68.2829
 20
-180.548
 10
-70.3595
 20
-179.918
 10
-72.3904
 20
-179.154
 10
-74.367
 20
-178.258
 10
-76.2808
 20
-177.236
 10
-78.1236
 20
-176.09
 10
-79.8875
 20
-174.826
 10
-81.565
 20
-173.449
 10
-83.1488
 20
-171.966
 10
-84.6323
 20
-170.382
 10
-86.0089
 20
-168.704
 10
-87.2729
 20
-166.94
 10
-88.4188
 20
-165.097
 10
-89.4418
 20
-163.184
 10
-90.3374
 20
-161.207
 10
-91.1018
 20
-159.176
 10
-91.7317
 20
-157.1
 10
-92.2245
 20
-154.986
 10
-92.578
 20
-152.845
 10
-92.7907
 20
-150.686
 10
-92.8617
 20
-148.517
 10
-92.8617
 20
-62.2833
 10
-92.7907
 20
-60.1145
 10
-92.7354
 20
-58.9241
 10
-92.5269
 20
-56.8072
 10
-92.1804
 20
-54.7086
 10
-91.6974
 20
-52.6371
 10
-91.08
 20
-50.6016
 10
-90.3307
 20
-48.6109
 10
-89.4528
 20
-46.6734
 10
-88.4502
 20
-44.7975
 10
-87.3269
 20
-42.9912
 10
-86.088
 20
-41.2622
 10
-84.7386
 20
-39.618
 10
-83.2845
 20
-38.0655
 10
-81.732
 20
-36.6114
 10
-80.0878
 20
-35.262
 10
-78.3588
 20
-34.0231
 10
-76.5525
 20
-32.8998
 10
-74.6766
 20
-31.8972
 10
-72.7391
 20
-31.0193
 10
-70.7484
 20
-30.27
 10
-68.7129
 20
-29.6526
 10
-66.6414
 20
-29.1696
 10
-64.5428
 20
-28.8231
 10
-62.4259
 20
-28.6146
 10
-60.3
 20
-28.545
 10
60.3
 20
-28.545
 10
62.4259
 20
-28.6146
 10
64.5428
 20
-28.8231
 10
66.6414
 20
-29.1696
 10
68.7129
 20
-29.6526
 10
70.7484
 20
-30.27
 10
72.7391
 20
-31.0193
 10
74.6766
 20
-31.8972
 10
76.5525
 20
-32.8998
 10
78.3588
 20
-34.0231
 10
80.0878
 20
-35.262
 10
81.732
 20
-36.6114
 10
83.2845
 20
-38.0655
 10
84.7386
 20
-39.618
 10
86.088
 20
-41.2622
 10
87.3269
 20
-42.9912
 10
88.4502
 20
-44.7975
 10
89.4528
 20
-46.6734
 10
90.3307
 20
-48.6109
 10
91.08
 20
-50.6016
 10
91.6974
 20
-52.6371
 10
92.1804
 20
-54.7086
 10
92.5269
 20
-56.8072
 10
92.7354
 20
-58.9241
 10
92.7907
 20
-60.1145
 10
92.8617
 20
-62.2833
 10
92.8617
 20
-148.517
 10
92.7907
 20
-150.686
 10
92.578
 20
-152.845
 10
92.2245
 20
-154.986
 10
91.7317
 20
-157.1
 10
91.1018
 20
-159.176
 10
90.3374
 20
-161.207
 10
89.4418
 20
-163.184
 10
88.4188
 20
-165.097
 10
87.2729
 20
-166.94
 10
86.0089
 20
-168.704
 10
84.6323
 20
-170.382
 10
83.1488
 20
-171.966
 10
81.565
 20
-173.449
 10
79.8875
 20
-174.826
 10
78.1236
 20
-176.09
 10
76.2808
 20
-177.236
 10
74.367
 20
-178.258
 10
72.3904
 20
-179.154
 10
70.3595
 20
-179.918
 10
68.2829
 20
-180.548
 10
66.1695
 20
-181.041
 10
64.0285
 20
-181.395
 10
61.8689
 20
-181.607
 10
59.7
 20
-181.678
  0
LWPOLYLINE
100
AcDbEntity
  8
0
100
AcDbPolyline
 90
96
 70
1
 10
-102.98
 20
-107.245
 10
-103.127
 20
-107.231
 10
-103.272
 20
-107.207
 10
-103.416
 20
-107.173
 10
-103.557
 20
-107.131
 10
-103.694
 20
-107.079
 10
-103.828
 20
-107.018
 10
-103.958
 20
-106.949
 10
-104.083
 20
-106.871
 10
-104.203
 20
-106.785
 10
-104.317
 20
-106.692
 10
-104.424
 20
-106.591
 10
-104.525
 20
-106.484
 10
-104.618
 20
-106.37
 10
-104.704
 20
-106.25
 10
-104.782
 20
-106.125
 10
-104.851
 20
-105.995
 10
-104.912
 20
-105.861
 10
-104.964
 20
-105.723
 10
-105.007
 20
-105.582
 10
-105.04
 20
-105.439
 10
-105.064
 20
-105.294
 10
-105.079
 20
-105.147
 10
-105.083
 20
-105
 10
-105.079
 20
-104.853
 10
-105.064
 20
-104.706
 10
-105.04
 20
-104.561
 10
-105.007
 20
-104.418
 10
-104.964
 20
-104.277
 10
-104.912
 20
-104.139
 10
-104.851
 20
-104.005
 10
-104.782
 20
-103.875
 10
-104.704
 20
-103.75
 10
-104.618
 20
-103.63
 10
-104.525
 20
-103.516
 10
-104.424
 20
-103.409
 10
-104.317
 20
-103.308
 10
-104.203
 20
-103.215
 10
-104.083
 20
-103.129
 10
-103.958
 20
-103.051
 10
-103.828
 20
-102.982
 10
-103.694
 20
-102.921
 10
-103.557
 20
-102.869
 10
-103.416
 20
-102.827
 10
-103.272
 20
-102.793
 10
-103.127
 20
-102.769
 10
-102.98
 20
-102.755
 10
-102.833
 20
-102.75
 10
-102.686
 20
-102.755
 10
-102.54
 20
-102.769
 10
-102.394
 20
-102.793
 10
-102.251
 20
-102.827
 10
-102.11
 20
-102.869
 10
-101.972
 20
-102.921
 10
-101.838
 20
-102.982
 10
-101.708
 20
-103.051
 10
-101.583
 20
-103.129
 10
-101.464
 20
-103.215
 10
-101.35
 20
-103.308
 10
-101.242
 20
-103.409
 10
-101.142
 20
-103.516
 10
-101.048
 20
-103.63
 10
-100.963
 20
-103.75
 10
-100.885
 20
-103.875
 10
-100.815
 20
-104.005
 10
-100.755
 20
-104.139
 10
-100.703
 20
-104.277
 10
-100.66
 20
-104.418
 10
-100.627
 20
-104.561
 10
-100.603
 20
-104.706
 10
-100.588
 20
-104.853
 10
-100.583
 20
-105
 10
-100.588
 20
-105.147
 10
-100.603
 20
-105.294
 10
-100.627
 20
-105.439
 10
-100.66
 20
-105.582
 10
-100.703
 20
-105.723
 10
-100.755
 20
-105.861
 10
-100.815
 20
-105.995
 10
-100.885
 20
-106.125
 10
-100.963
 20
-106.25
 10
-101.048
 20
-106.37
 10
-101.142
 20
-106.484
 10
-101.242
 20
-106.591
 10
-101.35
 20
-106.692
 10
-101.464
 20
-106.785
 10
-101.583
 20
-106.871
 10
-101.708
 20
-106.949
 10
-101.838
 20
-107.018
 10
-101.972
 20
-107.079
 10
-102.11
 20
-107.131
 10
-102.251
 20
-107.173
 10
-102.394
 20
-107.207
 10
-102.54
 20
-107.231
 10
-102.686
 20
-107.245
 10
-102.833
 20
-107.25
  0
LWPOLYLINE
100
AcDbEntity
  8
0
100
AcDbPolyline
 90
96
 70
1
 10
102.686
 20
-107.245
 10
102.54
 20
-107.231
 10
102.394
 20
-107.207
 10
102.251
 20
-107.173
 10
102.11
 20
-107.131
 10
101.972
 20
-107.079
 10
101.838
 20
-107.018
 10
101.708
 20
-106.949
 10
101.583
 20
-106.871
 10
101.464
 20
-106.785
 10
101.35
 20
-106.692
 10
101.242
 20
-106.591
 10
101.142
 20
-106.484
 10
101.048
 20
-106.37
 10
100.963
 20
-106.25
 10
100.885
 20
-106.125
 10
100.815
 20
-105.995
 10
100.755
 20
-105.861
 10
100.703
 20
-105.723
 10
100.66
 20
-105.582
 10
100.627
 20
-105.439
 10
100.603
 20
-105.294
 10
100.588
 20
-105.147
 10
100.583
 20
-105
 10
100.588
 20
-104.853
 10
100.603
 20
-104.706
 10
100.627
 20
-104.561
 10
100.66
 20
-104.418
 10
100.703
 20
-104.277
 10
100.755
 20
-104.139
 10
100.815
 20
-104.005
 10
100.885
 20
-103.875
 10
100.963
 20
-103.75
 10
101.048
 20
-103.63
 10
101.142
 20
-103.516
 10
101.242
 20
-103.409
 10
101.35
 20
-103.308
 10
101.464
 20
-103.215
 10
101.583
 20
-103.129
 10
101.708
 20
-103.051
 10
101.838
 20
-102.982
 10
101.972
 20
-102.921
 10
102.11
 20
-102.869
 10
102.251
 20
-102.827
 10
102.394
 20
-102.793
 10
102.54
 20
-102.769
 10
102.686
 20
-102.755
 10
102.833
 20
-102.75
 10
102.98
 20
-102.755
 10
103.127
 20
-102.769
 10
103.272
 20
-102.793
 10
103.416
 20
-102.827
 10
103.557
 20
-102.869
 10
103.694
 20
-102.921
 10
103.828
 20
-102.982
 10
103.958
 20
-103.051
 10
104.083
 20
-103.129
 10
104.203
 20
-103.215
 10
104.317
 20
-103.308
 10
104.424
 20
-103.409
 10
104.525
 20
-103.516
 10
104.618
 20
-103.63
 10
104.704
 20
-103.75
 10
104.782
 20
-103.875
 10
104.851
 20
-104.005
 10
104.912
 20
-104.139
 10
104.964
 20
-104.277
 10
105.007
 20
-104.418
 10
105.04
 20
-104.561
 10
105.064
 20
-104.706
 10
105.079
 20
-104.853
 10
105.083
 20
-105
 10
105.079
 20
-105.147
 10
105.064
 20
-105.294
 10
105.04
 20
-105.439
 10
105.007
 20
-105.582
 10
104.964
 20
-105.723
 10
104.912
 20
-105.861
 10
104.851
 20
-105.995
 10
104.782
 20
-106.125
 10
104.704
 20
-106.25
 10
104.618
 20
-106.37
 10
104.525
 20
-106.484
 10
104.424
 20
-106.591
 10
104.317
 20
-106.692
 10
104.203
 20
-106.785
 10
104.083
 20
-106.871
 10
103.958
 20
-106.949
 10
103.828
 20
-107.018
 10
103.694
 20
-107.079
 10
103.557
 20
-107.131
 10
103.416
 20
-107.173
 10
103.272
 20
-107.207
 10
103.127
 20
-107.231
 10
102.98
 20
-107.245
 10
102.833
 20
-107.25
  0
LWPOLYLINE
100
AcDbEntity
  8
0
100
AcDbPolyline
 90
96
 70
1
 10
-102.98
 20
-193.412
 10
-103.127
 20
-193.397
 10
-103.272
 20
-193.373
 10
-103.416
 20
-193.34
 10
-103.557
 20
-193.297
 10
-103.694
 20
-193.245
 10
-103.828
 20
-193.185
 10
-103.958
 20
-193.115
 10
-104.083
 20
-193.037
 10
-104.203
 20
-192.952
 10
-104.317
 20
-192.858
 10
-104.424
 20
-192.758
 10
-104.525
 20
-192.65
 10
-104.618
 20
-192.536
 10
-104.704
 20
-192.417
 10
-104.782
 20
-192.292
 10
-104.851
 20
-192.162
 10
-104.912
 20
-192.028
 10
-104.964
 20
-191.89
 10
-105.007
 20
-191.749
 10
-105.04
 20
-191.606
 10
-105.064
 20
-191.46
 10
-105.079
 20
-191.314
 10
-105.083
 20
-191.167
 10
-105.079
 20
-191.02
 10
-105.064
 20
-190.873
 10
-105.04
 20
-190.728
 10
-105.007
 20
-190.584
 10
-104.964
 20
-190.443
 10
-104.912
 20
-190.306
 10
-104.851
 20
-190.172
 10
-104.782
 20
-190.042
 10
-104.704
 20
-189.917
 10
-104.618
 20
-189.797
 10
-104.525
 20
-189.683
 10
-104.424
 20
-189.576
 10
-104.317
 20
-189.475
 10
-104.203
 20
-189.382
 10
-104.083
 20
-189.296
 10
-103.958
 20
-189.218
 10
-103.828
 20
-189.149
 10
-103.694
 20
-189.088
 10
-103.557
 20
-189.036
 10
-103.416
 20
-188.993
 10
-103.272
 20
-188.96
 10
-103.127
 20
-188.936
 10
-102.98
 20
-188.921
 10
-102.833
 20
-188.917
 10
-102.686
 20
-188.921
 10
-102.54
 20
-188.936
 10
-102.394
 20
-188.96
 10
-102.251
 20
-188.993
 10
-102.11
 20
-189.036
 10
-101.972
 20
-189.088
 10
-101.838
 20
-189.149
 10
-101.708
 20
-189.218
 10
-101.583
 20
-189.296
 10
-101.464
 20
-189.382
 10
-101.35
 20
-189.475
 10
-101.242
 20
-189.576
 10
-101.142
 20
-189.683
 10
-101.048
 20
-189.797
 10
-100.963
 20
-189.917
 10
-100.885
 20
-190.042
 10
-100.815
 20
-190.172
 10
-100.755
 20
-190.306
 10
-100.703
 20
-190.443
 10
-100.66
 20
-190.584
 10
-100.627
 20
-190.728
 10
-100.603
 20
-190.873
 10
-100.588
 20
-191.02
 10
-100.583
 20
-191.167
 10
-100.588
 20
-191.314
 10
-100.603
 20
-191.46
 10
-100.627
 20
-191.606
 10
-100.66
 20
-191.749
 10
-100.703
 20
-191.89
 10
-100.755
 20
-192.028
 10
-100.815
 20
-192.162
 10
-100.885
 20
-192.292
 10
-100.963
 20
-192.417
 10
-101.048
 20
-192.536
 10
-101.142
 20
-192.65
 10
-101.242
 20
-192.758
 10
-101.35
 20
-192.858
 10
-101.464
 20
-192.952
 10
-101.583
 20
-193.037
 10
-101.708
 20
-193.115
 10
-101.838
 20
-193.185
 10
-101.972
 20
-193.245
 10
-102.11
 20
-193.297
 10
-102.251
 20
-193.34
 10
-102.394
 20
-193.373
 10
-102.54
 20
-193.397
 10
-102.686
 20
-193.412
 10
-102.833
 20
-193.417
  0
LWPOLYLINE
100
AcDbEntity
  8
0
100
AcDbPolyline
 90
96
 70
1
 10
102.686
 20
-193.412
 10
102.54
 20
-193.397
 10
102.394
 20
-193.373
 10
102.251
 20
-193.34
 10
102.11
 20
-193.297
 10
101.972
 20
-193.245
 10
101.838
 20
-193.185
 10
101.708
 20
-193.115
 10
101.583
 20
-193.037
 10
101.464
 20
-192.952
 10
101.35
 20
-192.858
 10
101.242
 20
-192.758
 10
101.142
 20
-192.65
 10
101.048
 20
-192.536
 10
100.963
 20
-192.417
 10
100.885
 20
-192.292
 10
100.815
 20
-192.162
 10
100.755
 20
-192.028
 10
100.703
 20
-191.89
 10
100.66
 20
-191.749
 10
100.627
 20
-191.606
 10
100.603
 20
-191.46
 10
100.588
 20
-191.314
 10
100.583
 20
-191.167
 10
100.588
 20
-191.02
 10
100.603
 20
-190.873
 10
100.627
 20
-190.728
 10
100.66
 20
-190.584
 10
100.703
 20
-190.443
 10
100.755
 20
-190.306
 10
100.815
 20
-190.172
 10
100.885
 20
-190.042
 10
100.963
 20
-189.917
 10
101.048
 20
-189.797
 10
101.142
 20
-189.683
 10
101.242
 20
-189.576
 10
101.35
 20
-189.475
 10
101.464
 20
-189.382
 10
101.583
 20
-189.296
 10
101.708
 20
-189.218
 10
101.838
 20
-189.149
 10
101.972
 20
-189.088
 10
102.11
 20
-189.036
 10
102.251
 20
-188.993
 10
102.394
 20
-188.96
 10
102.54
 20
-188.936
 10
102.686
 20
-188.921
 10
102.833
 20
-188.917
 10
102.98
 20
-188.921
 10
103.127
 20
-188.936
 10
103.272
 20
-188.96
 10
103.416
 20
-188.993
 10
103.557
 20
-189.036
 10
103.694
 20
-189.088
 10
103.828
 20
-189.149
 10
103.958
 20
-189.218
 10
104.083
 20
-189.296
 10
104.203
 20
-189.382
 10
104.317
 20
-189.475
 10
104.424
 20
-189.576
 10
104.525
 20
-189.683
 10
104.618
 20
-189.797
 10
104.704
 20
-189.917
 10
104.782
 20
-190.042
 10
104.851
 20
-190.172
 10
104.912
 20
-190.306
 10
104.964
 20
-190.443
 10
105.007
 20
-190.584
 10
105.04
 20
-190.728
 10
105.064
 20
-190.873
 10
105.079
 20
-191.02
 10
105.083
 20
-191.167
 10
105.079
 20
-191.314
 10
105.064
 20
-191.46
 10
105.04
 20
-191.606
 10
105.007
 20
-191.749
 10
104.964
 20
-191.89
 10
104.912
 20
-192.028
 10
104.851
 20
-192.162
 10
104.782
 20
-192.292
 10
104.704
 20
-192.417
 10
104.618
 20
-192.536
 10
104.525
 20
-192.65
 10
104.424
 20
-192.758
 10
104.317
 20
-192.858
 10
104.203
 20
-192.952
 10
104.083
 20
-193.037
 10
103.958
 20
-193.115
 10
103.828
 20
-193.185
 10
103.694
 20
-193.245
 10
103.557
 20
-193.297
 10
103.416
 20
-193.34
 10
103.272
 20
-193.373
 10
103.127
 20
-193.397
 10
102.98
 20
-193.412
 10
102.833
 20
-193.417
  0
ENDSEC
  0
EOF
