999
DXF from OpenSCAD
  0
SECTION
  2
HEADER
  9
$ACADVER
  1
AC1006
  9
$INSBASE
 10
0.0
 20
0.0
 30
0.0
  9
$EXTMIN
 10
-90
 20
6
  9
$EXTMAX
 10
90
 20
114
  9
$LINMIN
 10
-90
 20
6
  9
$LINMAX
 10
90
 20
114
  0
ENDSEC
  0
SECTION
  2
TABLES
  0
TABLE
  2
LTYPE
 70
1
  0
LTYPE
  2
CONTINUOUS
 70
64
  3
Solid line
 72
65
 73
0
 40
0.000000
  0
ENDTAB
  0
TABLE
  2
LAYER
 70
6
  0
LAYER
  2
0
 70
64
 62
7
  6
CONTINUOUS
  0
ENDTAB
  0
TABLE
  2
STYLE
 70
0
  0
ENDTAB
  0
ENDSEC
  0
SECTION
  2
BLOCKS
  0
ENDSEC
  0
SECTION
  2
ENTITIES
  0
LWPOLYLINE
100
AcDbEntity
  8
0
100
AcDbPolyline
 90
4
 70
1
 10
90
 20
114
 10
-90
 20
114
 10
-90
 20
6
 10
90
 20
6
  0
LWPOLYLINE
100
AcDbEntity
  8
0
100
AcDbPolyline
 90
96
 70
1
 10
-84.1472
 20
105.755
 10
-84.2937
 20
105.769
 10
-84.439
 20
105.793
 10
-84.5823
 20
105.827
 10
-84.7232
 20
105.869
 10
-84.861
 20
105.921
 10
-84.9951
 20
105.982
 10
-85.125
 20
106.051
 10
-85.25
 20
106.129
 10
-85.3697
 20
106.215
 10
-85.4835
 20
106.308
 10
-85.591
 20
106.409
 10
-85.6916
 20
106.516
 10
-85.785
 20
106.63
 10
-85.8708
 20
106.75
 10
-85.9486
 20
106.875
 10
-86.018
 20
107.005
 10
-86.0787
 20
107.139
 10
-86.1306
 20
107.277
 10
-86.1733
 20
107.418
 10
-86.2068
 20
107.561
 10
-86.2308
 20
107.706
 10
-86.2452
 20
107.853
 10
-86.25
 20
108
 10
-86.2452
 20
108.147
 10
-86.2308
 20
108.294
 10
-86.2068
 20
108.439
 10
-86.1733
 20
108.582
 10
-86.1306
 20
108.723
 10
-86.0787
 20
108.861
 10
-86.018
 20
108.995
 10
-85.9486
 20
109.125
 10
-85.8708
 20
109.25
 10
-85.785
 20
109.37
 10
-85.6916
 20
109.484
 10
-85.591
 20
109.591
 10
-85.4835
 20
109.692
 10
-85.3697
 20
109.785
 10
-85.25
 20
109.871
 10
-85.125
 20
109.949
 10
-84.9951
 20
110.018
 10
-84.861
 20
110.079
 10
-84.7232
 20
110.131
 10
-84.5823
 20
110.173
 10
-84.439
 20
110.207
 10
-84.2937
 20
110.231
 10
-84.1472
 20
110.245
 10
-84
 20
110.25
 10
-83.8528
 20
110.245
 10
-83.7063
 20
110.231
 10
-83.561
 20
110.207
 10
-83.4177
 20
110.173
 10
-83.2768
 20
110.131
 10
-83.139
 20
110.079
 10
-83.0049
 20
110.018
 10
-82.875
 20
109.949
 10
-82.75
 20
109.871
 10
-82.6303
 20
109.785
 10
-82.5165
 20
109.692
 10
-82.409
 20
109.591
 10
-82.3084
 20
109.484
 10
-82.215
 20
109.37
 10
-82.1292
 20
109.25
 10
-82.0514
 20
109.125
 10
-81.982
 20
108.995
 10
-81.9213
 20
108.861
 10
-81.8694
 20
108.723
 10
-81.8267
 20
108.582
 10
-81.7932
 20
108.439
 10
-81.7692
 20
108.294
 10
-81.7548
 20
108.147
 10
-81.75
 20
108
 10
-81.7548
 20
107.853
 10
-81.7692
 20
107.706
 10
-81.7932
 20
107.561
 10
-81.8267
 20
107.418
 10
-81.8694
 20
107.277
 10
-81.9213
 20
107.139
 10
-81.982
 20
107.005
 10
-82.0514
 20
106.875
 10
-82.1292
 20
106.75
 10
-82.215
 20
106.63
 10
-82.3084
 20
106.516
 10
-82.409
 20
106.409
 10
-82.5165
 20
106.308
 10
-82.6303
 20
106.215
 10
-82.75
 20
106.129
 10
-82.875
 20
106.051
 10
-83.0049
 20
105.982
 10
-83.139
 20
105.921
 10
-83.2768
 20
105.869
 10
-83.4177
 20
105.827
 10
-83.561
 20
105.793
 10
-83.7063
 20
105.769
 10
-83.8528
 20
105.755
 10
-84
 20
105.75
  0
LWPOLYLINE
100
AcDbEntity
  8
0
100
AcDbPolyline
 90
96
 70
1
 10
83.8528
 20
105.755
 10
83.7063
 20
105.769
 10
83.561
 20
105.793
 10
83.4177
 20
105.827
 10
83.2768
 20
105.869
 10
83.139
 20
105.921
 10
83.0049
 20
105.982
 10
82.875
 20
106.051
 10
82.75
 20
106.129
 10
82.6303
 20
106.215
 10
82.5165
 20
106.308
 10
82.409
 20
106.409
 10
82.3084
 20
106.516
 10
82.215
 20
106.63
 10
82.1292
 20
106.75
 10
82.0514
 20
106.875
 10
81.982
 20
107.005
 10
81.9213
 20
107.139
 10
81.8694
 20
107.277
 10
81.8267
 20
107.418
 10
81.7932
 20
107.561
 10
81.7692
 20
107.706
 10
81.7548
 20
107.853
 10
81.75
 20
108
 10
81.7548
 20
108.147
 10
81.7692
 20
108.294
 10
81.7932
 20
108.439
 10
81.8267
 20
108.582
 10
81.8694
 20
108.723
 10
81.9213
 20
108.861
 10
81.982
 20
108.995
 10
82.0514
 20
109.125
 10
82.1292
 20
109.25
 10
82.215
 20
109.37
 10
82.3084
 20
109.484
 10
82.409
 20
109.591
 10
82.5165
 20
109.692
 10
82.6303
 20
109.785
 10
82.75
 20
109.871
 10
82.875
 20
109.949
 10
83.0049
 20
110.018
 10
83.139
 20
110.079
 10
83.2768
 20
110.131
 10
83.4177
 20
110.173
 10
83.561
 20
110.207
 10
83.7063
 20
110.231
 10
83.8528
 20
110.245
 10
84
 20
110.25
 10
84.1472
 20
110.245
 10
84.2937
 20
110.231
 10
84.439
 20
110.207
 10
84.5823
 20
110.173
 10
84.7232
 20
110.131
 10
84.861
 20
110.079
 10
84.9951
 20
110.018
 10
85.125
 20
109.949
 10
85.25
 20
109.871
 10
85.3697
 20
109.785
 10
85.4835
 20
109.692
 10
85.591
 20
109.591
 10
85.6916
 20
109.484
 10
85.785
 20
109.37
 10
85.8708
 20
109.25
 10
85.9486
 20
109.125
 10
86.018
 20
108.995
 10
86.0787
 20
108.861
 10
86.1306
 20
108.723
 10
86.1733
 20
108.582
 10
86.2068
 20
108.439
 10
86.2308
 20
108.294
 10
86.2452
 20
108.147
 10
86.25
 20
108
 10
86.2452
 20
107.853
 10
86.2308
 20
107.706
 10
86.2068
 20
107.561
 10
86.1733
 20
107.418
 10
86.1306
 20
107.277
 10
86.0787
 20
107.139
 10
86.018
 20
107.005
 10
85.9486
 20
106.875
 10
85.8708
 20
106.75
 10
85.785
 20
106.63
 10
85.6916
 20
106.516
 10
85.591
 20
106.409
 10
85.4835
 20
106.308
 10
85.3697
 20
106.215
 10
85.25
 20
106.129
 10
85.125
 20
106.051
 10
84.9951
 20
105.982
 10
84.861
 20
105.921
 10
84.7232
 20
105.869
 10
84.5823
 20
105.827
 10
84.439
 20
105.793
 10
84.2937
 20
105.769
 10
84.1472
 20
105.755
 10
84
 20
105.75
  0
LWPOLYLINE
100
AcDbEntity
  8
0
100
AcDbPolyline
 90
4
 70
1
 10
-75
 20
12
 10
-75
 20
108
 10
75
 20
108
 10
75
 20
12
  0
LWPOLYLINE
100
AcDbEntity
  8
0
100
AcDbPolyline
 90
96
 70
1
 10
-84.1472
 20
87.7548
 10
-84.2937
 20
87.7692
 10
-84.439
 20
87.7932
 10
-84.5823
 20
87.8267
 10
-84.7232
 20
87.8694
 10
-84.861
 20
87.9213
 10
-84.9951
 20
87.982
 10
-85.125
 20
88.0514
 10
-85.25
 20
88.1292
 10
-85.3697
 20
88.215
 10
-85.4835
 20
88.3084
 10
-85.591
 20
88.409
 10
-85.6916
 20
88.5165
 10
-85.785
 20
88.6303
 10
-85.8708
 20
88.75
 10
-85.9486
 20
88.875
 10
-86.018
 20
89.0049
 10
-86.0787
 20
89.139
 10
-86.1306
 20
89.2768
 10
-86.1733
 20
89.4177
 10
-86.2068
 20
89.561
 10
-86.2308
 20
89.7063
 10
-86.2452
 20
89.8528
 10
-86.25
 20
90
 10
-86.2452
 20
90.1472
 10
-86.2308
 20
90.2937
 10
-86.2068
 20
90.439
 10
-86.1733
 20
90.5823
 10
-86.1306
 20
90.7232
 10
-86.0787
 20
90.861
 10
-86.018
 20
90.9951
 10
-85.9486
 20
91.125
 10
-85.8708
 20
91.25
 10
-85.785
 20
91.3697
 10
-85.6916
 20
91.4835
 10
-85.591
 20
91.591
 10
-85.4835
 20
91.6916
 10
-85.3697
 20
91.785
 10
-85.25
 20
91.8708
 10
-85.125
 20
91.9486
 10
-84.9951
 20
92.018
 10
-84.861
 20
92.0787
 10
-84.7232
 20
92.1306
 10
-84.5823
 20
92.1733
 10
-84.439
 20
92.2068
 10
-84.2937
 20
92.2308
 10
-84.1472
 20
92.2452
 10
-84
 20
92.25
 10
-83.8528
 20
92.2452
 10
-83.7063
 20
92.2308
 10
-83.561
 20
92.2068
 10
-83.4177
 20
92.1733
 10
-83.2768
 20
92.1306
 10
-83.139
 20
92.0787
 10
-83.0049
 20
92.018
 10
-82.875
 20
91.9486
 10
-82.75
 20
91.8708
 10
-82.6303
 20
91.785
 10
-82.5165
 20
91.6916
 10
-82.409
 20
91.591
 10
-82.3084
 20
91.4835
 10
-82.215
 20
91.3697
 10
-82.1292
 20
91.25
 10
-82.0514
 20
91.125
 10
-81.982
 20
90.9951
 10
-81.9213
 20
90.861
 10
-81.8694
 20
90.7232
 10
-81.8267
 20
90.5823
 10
-81.7932
 20
90.439
 10
-81.7692
 20
90.2937
 10
-81.7548
 20
90.1472
 10
-81.75
 20
90
 10
-81.7548
 20
89.8528
 10
-81.7692
 20
89.7063
 10
-81.7932
 20
89.561
 10
-81.8267
 20
89.4177
 10
-81.8694
 20
89.2768
 10
-81.9213
 20
89.139
 10
-81.982
 20
89.0049
 10
-82.0514
 20
88.875
 10
-82.1292
 20
88.75
 10
-82.215
 20
88.6303
 10
-82.3084
 20
88.5165
 10
-82.409
 20
88.409
 10
-82.5165
 20
88.3084
 10
-82.6303
 20
88.215
 10
-82.75
 20
88.1292
 10
-82.875
 20
88.0514
 10
-83.0049
 20
87.982
 10
-83.139
 20
87.9213
 10
-83.2768
 20
87.8694
 10
-83.4177
 20
87.8267
 10
-83.561
 20
87.7932
 10
-83.7063
 20
87.7692
 10
-83.8528
 20
87.7548
 10
-84
 20
87.75
  0
LWPOLYLINE
100
AcDbEntity
  8
0
100
AcDbPolyline
 90
96
 70
1
 10
83.8528
 20
87.7548
 10
83.7063
 20
87.7692
 10
83.561
 20
87.7932
 10
83.4177
 20
87.8267
 10
83.2768
 20
87.8694
 10
83.139
 20
87.9213
 10
83.0049
 20
87.982
 10
82.875
 20
88.0514
 10
82.75
 20
88.1292
 10
82.6303
 20
88.215
 10
82.5165
 20
88.3084
 10
82.409
 20
88.409
 10
82.3084
 20
88.5165
 10
82.215
 20
88.6303
 10
82.1292
 20
88.75
 10
82.0514
 20
88.875
 10
81.982
 20
89.0049
 10
81.9213
 20
89.139
 10
81.8694
 20
89.2768
 10
81.8267
 20
89.4177
 10
81.7932
 20
89.561
 10
81.7692
 20
89.7063
 10
81.7548
 20
89.8528
 10
81.75
 20
90
 10
81.7548
 20
90.1472
 10
81.7692
 20
90.2937
 10
81.7932
 20
90.439
 10
81.8267
 20
90.5823
 10
81.8694
 20
90.7232
 10
81.9213
 20
90.861
 10
81.982
 20
90.9951
 10
82.0514
 20
91.125
 10
82.1292
 20
91.25
 10
82.215
 20
91.3697
 10
82.3084
 20
91.4835
 10
82.409
 20
91.591
 10
82.5165
 20
91.6916
 10
82.6303
 20
91.785
 10
82.75
 20
91.8708
 10
82.875
 20
91.9486
 10
83.0049
 20
92.018
 10
83.139
 20
92.0787
 10
83.2768
 20
92.1306
 10
83.4177
 20
92.1733
 10
83.561
 20
92.2068
 10
83.7063
 20
92.2308
 10
83.8528
 20
92.2452
 10
84
 20
92.25
 10
84.1472
 20
92.2452
 10
84.2937
 20
92.2308
 10
84.439
 20
92.2068
 10
84.5823
 20
92.1733
 10
84.7232
 20
92.1306
 10
84.861
 20
92.0787
 10
84.9951
 20
92.018
 10
85.125
 20
91.9486
 10
85.25
 20
91.8708
 10
85.3697
 20
91.785
 10
85.4835
 20
91.6916
 10
85.591
 20
91.591
 10
85.6916
 20
91.4835
 10
85.785
 20
91.3697
 10
85.8708
 20
91.25
 10
85.9486
 20
91.125
 10
86.018
 20
90.9951
 10
86.0787
 20
90.861
 10
86.1306
 20
90.7232
 10
86.1733
 20
90.5823
 10
86.2068
 20
90.439
 10
86.2308
 20
90.2937
 10
86.2452
 20
90.1472
 10
86.25
 20
90
 10
86.2452
 20
89.8528
 10
86.2308
 20
89.7063
 10
86.2068
 20
89.561
 10
86.1733
 20
89.4177
 10
86.1306
 20
89.2768
 10
86.0787
 20
89.139
 10
86.018
 20
89.0049
 10
85.9486
 20
88.875
 10
85.8708
 20
88.75
 10
85.785
 20
88.6303
 10
85.6916
 20
88.5165
 10
85.591
 20
88.409
 10
85.4835
 20
88.3084
 10
85.3697
 20
88.215
 10
85.25
 20
88.1292
 10
85.125
 20
88.0514
 10
84.9951
 20
87.982
 10
84.861
 20
87.9213
 10
84.7232
 20
87.8694
 10
84.5823
 20
87.8267
 10
84.439
 20
87.7932
 10
84.2937
 20
87.7692
 10
84.1472
 20
87.7548
 10
84
 20
87.75
  0
LWPOLYLINE
100
AcDbEntity
  8
0
100
AcDbPolyline
 90
96
 70
1
 10
-84.1472
 20
51.7548
 10
-84.2937
 20
51.7692
 10
-84.439
 20
51.7932
 10
-84.5823
 20
51.8267
 10
-84.7232
 20
51.8694
 10
-84.861
 20
51.9213
 10
-84.9951
 20
51.982
 10
-85.125
 20
52.0514
 10
-85.25
 20
52.1292
 10
-85.3697
 20
52.215
 10
-85.4835
 20
52.3084
 10
-85.591
 20
52.409
 10
-85.6916
 20
52.5165
 10
-85.785
 20
52.6303
 10
-85.8708
 20
52.75
 10
-85.9486
 20
52.875
 10
-86.018
 20
53.0049
 10
-86.0787
 20
53.139
 10
-86.1306
 20
53.2768
 10
-86.1733
 20
53.4177
 10
-86.2068
 20
53.561
 10
-86.2308
 20
53.7063
 10
-86.2452
 20
53.8528
 10
-86.25
 20
54
 10
-86.2452
 20
54.1472
 10
-86.2308
 20
54.2937
 10
-86.2068
 20
54.439
 10
-86.1733
 20
54.5823
 10
-86.1306
 20
54.7232
 10
-86.0787
 20
54.861
 10
-86.018
 20
54.9951
 10
-85.9486
 20
55.125
 10
-85.8708
 20
55.25
 10
-85.785
 20
55.3697
 10
-85.6916
 20
55.4835
 10
-85.591
 20
55.591
 10
-85.4835
 20
55.6916
 10
-85.3697
 20
55.785
 10
-85.25
 20
55.8708
 10
-85.125
 20
55.9486
 10
-84.9951
 20
56.018
 10
-84.861
 20
56.0787
 10
-84.7232
 20
56.1306
 10
-84.5823
 20
56.1733
 10
-84.439
 20
56.2068
 10
-84.2937
 20
56.2308
 10
-84.1472
 20
56.2452
 10
-84
 20
56.25
 10
-83.8528
 20
56.2452
 10
-83.7063
 20
56.2308
 10
-83.561
 20
56.2068
 10
-83.4177
 20
56.1733
 10
-83.2768
 20
56.1306
 10
-83.139
 20
56.0787
 10
-83.0049
 20
56.018
 10
-82.875
 20
55.9486
 10
-82.75
 20
55.8708
 10
-82.6303
 20
55.785
 10
-82.5165
 20
55.6916
 10
-82.409
 20
55.591
 10
-82.3084
 20
55.4835
 10
-82.215
 20
55.3697
 10
-82.1292
 20
55.25
 10
-82.0514
 20
55.125
 10
-81.982
 20
54.9951
 10
-81.9213
 20
54.861
 10
-81.8694
 20
54.7232
 10
-81.8267
 20
54.5823
 10
-81.7932
 20
54.439
 10
-81.7692
 20
54.2937
 10
-81.7548
 20
54.1472
 10
-81.75
 20
54
 10
-81.7548
 20
53.8528
 10
-81.7692
 20
53.7063
 10
-81.7932
 20
53.561
 10
-81.8267
 20
53.4177
 10
-81.8694
 20
53.2768
 10
-81.9213
 20
53.139
 10
-81.982
 20
53.0049
 10
-82.0514
 20
52.875
 10
-82.1292
 20
52.75
 10
-82.215
 20
52.6303
 10
-82.3084
 20
52.5165
 10
-82.409
 20
52.409
 10
-82.5165
 20
52.3084
 10
-82.6303
 20
52.215
 10
-82.75
 20
52.1292
 10
-82.875
 20
52.0514
 10
-83.0049
 20
51.982
 10
-83.139
 20
51.9213
 10
-83.2768
 20
51.8694
 10
-83.4177
 20
51.8267
 10
-83.561
 20
51.7932
 10
-83.7063
 20
51.7692
 10
-83.8528
 20
51.7548
 10
-84
 20
51.75
  0
LWPOLYLINE
100
AcDbEntity
  8
0
100
AcDbPolyline
 90
96
 70
1
 10
83.8528
 20
51.7548
 10
83.7063
 20
51.7692
 10
83.561
 20
51.7932
 10
83.4177
 20
51.8267
 10
83.2768
 20
51.8694
 10
83.139
 20
51.9213
 10
83.0049
 20
51.982
 10
82.875
 20
52.0514
 10
82.75
 20
52.1292
 10
82.6303
 20
52.215
 10
82.5165
 20
52.3084
 10
82.409
 20
52.409
 10
82.3084
 20
52.5165
 10
82.215
 20
52.6303
 10
82.1292
 20
52.75
 10
82.0514
 20
52.875
 10
81.982
 20
53.0049
 10
81.9213
 20
53.139
 10
81.8694
 20
53.2768
 10
81.8267
 20
53.4177
 10
81.7932
 20
53.561
 10
81.7692
 20
53.7063
 10
81.7548
 20
53.8528
 10
81.75
 20
54
 10
81.7548
 20
54.1472
 10
81.7692
 20
54.2937
 10
81.7932
 20
54.439
 10
81.8267
 20
54.5823
 10
81.8694
 20
54.7232
 10
81.9213
 20
54.861
 10
81.982
 20
54.9951
 10
82.0514
 20
55.125
 10
82.1292
 20
55.25
 10
82.215
 20
55.3697
 10
82.3084
 20
55.4835
 10
82.409
 20
55.591
 10
82.5165
 20
55.6916
 10
82.6303
 20
55.785
 10
82.75
 20
55.8708
 10
82.875
 20
55.9486
 10
83.0049
 20
56.018
 10
83.139
 20
56.0787
 10
83.2768
 20
56.1306
 10
83.4177
 20
56.1733
 10
83.561
 20
56.2068
 10
83.7063
 20
56.2308
 10
83.8528
 20
56.2452
 10
84
 20
56.25
 10
84.1472
 20
56.2452
 10
84.2937
 20
56.2308
 10
84.439
 20
56.2068
 10
84.5823
 20
56.1733
 10
84.7232
 20
56.1306
 10
84.861
 20
56.0787
 10
84.9951
 20
56.018
 10
85.125
 20
55.9486
 10
85.25
 20
55.8708
 10
85.3697
 20
55.785
 10
85.4835
 20
55.6916
 10
85.591
 20
55.591
 10
85.6916
 20
55.4835
 10
85.785
 20
55.3697
 10
85.8708
 20
55.25
 10
85.9486
 20
55.125
 10
86.018
 20
54.9951
 10
86.0787
 20
54.861
 10
86.1306
 20
54.7232
 10
86.1733
 20
54.5823
 10
86.2068
 20
54.439
 10
86.2308
 20
54.2937
 10
86.2452
 20
54.1472
 10
86.25
 20
54
 10
86.2452
 20
53.8528
 10
86.2308
 20
53.7063
 10
86.2068
 20
53.561
 10
86.1733
 20
53.4177
 10
86.1306
 20
53.2768
 10
86.0787
 20
53.139
 10
86.018
 20
53.0049
 10
85.9486
 20
52.875
 10
85.8708
 20
52.75
 10
85.785
 20
52.6303
 10
85.6916
 20
52.5165
 10
85.591
 20
52.409
 10
85.4835
 20
52.3084
 10
85.3697
 20
52.215
 10
85.25
 20
52.1292
 10
85.125
 20
52.0514
 10
84.9951
 20
51.982
 10
84.861
 20
51.9213
 10
84.7232
 20
51.8694
 10
84.5823
 20
51.8267
 10
84.439
 20
51.7932
 10
84.2937
 20
51.7692
 10
84.1472
 20
51.7548
 10
84
 20
51.75
  0
LWPOLYLINE
100
AcDbEntity
  8
0
100
AcDbPolyline
 90
96
 70
1
 10
-84.1472
 20
15.7548
 10
-84.2937
 20
15.7692
 10
-84.439
 20
15.7932
 10
-84.5823
 20
15.8267
 10
-84.7232
 20
15.8694
 10
-84.861
 20
15.9213
 10
-84.9951
 20
15.982
 10
-85.125
 20
16.0514
 10
-85.25
 20
16.1292
 10
-85.3697
 20
16.215
 10
-85.4835
 20
16.3084
 10
-85.591
 20
16.409
 10
-85.6916
 20
16.5165
 10
-85.785
 20
16.6303
 10
-85.8708
 20
16.75
 10
-85.9486
 20
16.875
 10
-86.018
 20
17.0049
 10
-86.0787
 20
17.139
 10
-86.1306
 20
17.2768
 10
-86.1733
 20
17.4177
 10
-86.2068
 20
17.561
 10
-86.2308
 20
17.7063
 10
-86.2452
 20
17.8528
 10
-86.25
 20
18
 10
-86.2452
 20
18.1472
 10
-86.2308
 20
18.2937
 10
-86.2068
 20
18.439
 10
-86.1733
 20
18.5823
 10
-86.1306
 20
18.7232
 10
-86.0787
 20
18.861
 10
-86.018
 20
18.9951
 10
-85.9486
 20
19.125
 10
-85.8708
 20
19.25
 10
-85.785
 20
19.3697
 10
-85.6916
 20
19.4835
 10
-85.591
 20
19.591
 10
-85.4835
 20
19.6916
 10
-85.3697
 20
19.785
 10
-85.25
 20
19.8708
 10
-85.125
 20
19.9486
 10
-84.9951
 20
20.018
 10
-84.861
 20
20.0787
 10
-84.7232
 20
20.1306
 10
-84.5823
 20
20.1733
 10
-84.439
 20
20.2068
 10
-84.2937
 20
20.2308
 10
-84.1472
 20
20.2452
 10
-84
 20
20.25
 10
-83.8528
 20
20.2452
 10
-83.7063
 20
20.2308
 10
-83.561
 20
20.2068
 10
-83.4177
 20
20.1733
 10
-83.2768
 20
20.1306
 10
-83.139
 20
20.0787
 10
-83.0049
 20
20.018
 10
-82.875
 20
19.9486
 10
-82.75
 20
19.8708
 10
-82.6303
 20
19.785
 10
-82.5165
 20
19.6916
 10
-82.409
 20
19.591
 10
-82.3084
 20
19.4835
 10
-82.215
 20
19.3697
 10
-82.1292
 20
19.25
 10
-82.0514
 20
19.125
 10
-81.982
 20
18.9951
 10
-81.9213
 20
18.861
 10
-81.8694
 20
18.7232
 10
-81.8267
 20
18.5823
 10
-81.7932
 20
18.439
 10
-81.7692
 20
18.2937
 10
-81.7548
 20
18.1472
 10
-81.75
 20
18
 10
-81.7548
 20
17.8528
 10
-81.7692
 20
17.7063
 10
-81.7932
 20
17.561
 10
-81.8267
 20
17.4177
 10
-81.8694
 20
17.2768
 10
-81.9213
 20
17.139
 10
-81.982
 20
17.0049
 10
-82.0514
 20
16.875
 10
-82.1292
 20
16.75
 10
-82.215
 20
16.6303
 10
-82.3084
 20
16.5165
 10
-82.409
 20
16.409
 10
-82.5165
 20
16.3084
 10
-82.6303
 20
16.215
 10
-82.75
 20
16.1292
 10
-82.875
 20
16.0514
 10
-83.0049
 20
15.982
 10
-83.139
 20
15.9213
 10
-83.2768
 20
15.8694
 10
-83.4177
 20
15.8267
 10
-83.561
 20
15.7932
 10
-83.7063
 20
15.7692
 10
-83.8528
 20
15.7548
 10
-84
 20
15.75
  0
LWPOLYLINE
100
AcDbEntity
  8
0
100
AcDbPolyline
 90
96
 70
1
 10
83.8528
 20
15.7548
 10
83.7063
 20
15.7692
 10
83.561
 20
15.7932
 10
83.4177
 20
15.8267
 10
83.2768
 20
15.8694
 10
83.139
 20
15.9213
 10
83.0049
 20
15.982
 10
82.875
 20
16.0514
 10
82.75
 20
16.1292
 10
82.6303
 20
16.215
 10
82.5165
 20
16.3084
 10
82.409
 20
16.409
 10
82.3084
 20
16.5165
 10
82.215
 20
16.6303
 10
82.1292
 20
16.75
 10
82.0514
 20
16.875
 10
81.982
 20
17.0049
 10
81.9213
 20
17.139
 10
81.8694
 20
17.2768
 10
81.8267
 20
17.4177
 10
81.7932
 20
17.561
 10
81.7692
 20
17.7063
 10
81.7548
 20
17.8528
 10
81.75
 20
18
 10
81.7548
 20
18.1472
 10
81.7692
 20
18.2937
 10
81.7932
 20
18.439
 10
81.8267
 20
18.5823
 10
81.8694
 20
18.7232
 10
81.9213
 20
18.861
 10
81.982
 20
18.9951
 10
82.0514
 20
19.125
 10
82.1292
 20
19.25
 10
82.215
 20
19.3697
 10
82.3084
 20
19.4835
 10
82.409
 20
19.591
 10
82.5165
 20
19.6916
 10
82.6303
 20
19.785
 10
82.75
 20
19.8708
 10
82.875
 20
19.9486
 10
83.0049
 20
20.018
 10
83.139
 20
20.0787
 10
83.2768
 20
20.1306
 10
83.4177
 20
20.1733
 10
83.561
 20
20.2068
 10
83.7063
 20
20.2308
 10
83.8528
 20
20.2452
 10
84
 20
20.25
 10
84.1472
 20
20.2452
 10
84.2937
 20
20.2308
 10
84.439
 20
20.2068
 10
84.5823
 20
20.1733
 10
84.7232
 20
20.1306
 10
84.861
 20
20.0787
 10
84.9951
 20
20.018
 10
85.125
 20
19.9486
 10
85.25
 20
19.8708
 10
85.3697
 20
19.785
 10
85.4835
 20
19.6916
 10
85.591
 20
19.591
 10
85.6916
 20
19.4835
 10
85.785
 20
19.3697
 10
85.8708
 20
19.25
 10
85.9486
 20
19.125
 10
86.018
 20
18.9951
 10
86.0787
 20
18.861
 10
86.1306
 20
18.7232
 10
86.1733
 20
18.5823
 10
86.2068
 20
18.439
 10
86.2308
 20
18.2937
 10
86.2452
 20
18.1472
 10
86.25
 20
18
 10
86.2452
 20
17.8528
 10
86.2308
 20
17.7063
 10
86.2068
 20
17.561
 10
86.1733
 20
17.4177
 10
86.1306
 20
17.2768
 10
86.0787
 20
17.139
 10
86.018
 20
17.0049
 10
85.9486
 20
16.875
 10
85.8708
 20
16.75
 10
85.785
 20
16.6303
 10
85.6916
 20
16.5165
 10
85.591
 20
16.409
 10
85.4835
 20
16.3084
 10
85.3697
 20
16.215
 10
85.25
 20
16.1292
 10
85.125
 20
16.0514
 10
84.9951
 20
15.982
 10
84.861
 20
15.9213
 10
84.7232
 20
15.8694
 10
84.5823
 20
15.8267
 10
84.439
 20
15.7932
 10
84.2937
 20
15.7692
 10
84.1472
 20
15.7548
 10
84
 20
15.75
  0
ENDSEC
  0
EOF
